<svg width="1920" height="1080" version="1.1" viewBox="0 0 508 285.75" xmlns="http://www.w3.org/2000/svg" xmlns:xlink="http://www.w3.org/1999/xlink"><defs><radialGradient id="radialGradient4148" cx="254" cy="142.88" r="254" gradientTransform="matrix(1 0 0 .5625 0 62.508)" gradientUnits="userSpaceOnUse"><stop style="stop-color:#ffffff" offset="0"/><stop style="stop-color:#ffffff" offset=".46532"/><stop style="stop-color:#d0d0d0" offset="1"/></radialGradient><filter id="filter5571" x="-.028433" y="-.10145" width="1.0569" height="1.2029" style="color-interpolation-filters:sRGB"><feGaussianBlur result="blur" stdDeviation="3 3"/></filter></defs><rect width="508" height="285.75" style="fill:url(#radialGradient4148);stroke-width:.98477"/><g transform="translate(4.7625 5.2917)" style="fill:#2b0000;filter:url(#filter5571);opacity:.75"><g transform="matrix(.024335 0 0 .024335 125.41 96.594)" style="clip-rule:evenodd;fill-rule:evenodd;fill:#2b0000;image-rendering:optimizeQuality;shape-rendering:geometricPrecision"><path class="fil0" d="m40 2226c6-113 79-173 189-162 1 0 2-1 3-1 14-27 35-36 60-50 88-46 185-64 284-64 66 0 148 3 208 33 101 50 140 156 133 263-3 52-13 101-33 148-17 42-38 78-66 113-32 39-71 55-120 55-195 0-392-2-584-37-147-28-128-203-74-298z" style="fill:#2b0000"/><path class="fil0" d="m2851 1566c69 15 105 132 93 194-14 80-106 110-175 124-146 28-346 93-388-106-12-56-53-81-11-133 93-116 243-143 381-104 33 9 67 16 100 25z" style="fill:#2b0000"/><path class="fil0" d="m2708 1966c52 3 74 46 90 91 29 87-31 139-109 164-55 17-114 28-146-32-19-37-33-88-27-130 13-91 120-98 192-93z" style="fill:#2b0000"/><path class="fil0" d="m2651 2252c38 7 78 51 96 84 47 85-56 128-121 146-85 24-123-36-138-112-22-103 84-122 163-118z" style="fill:#2b0000"/><path class="fil0" d="m2525 2540c39 12 87 30 95 75 6 35-15 69-34 95-26 34-58 14-88-1-34-18-87-55-61-99 19-32 56-53 88-70z" style="fill:#2b0000"/><path class="fil0" d="m2094 1664c111-4 191 51 220 159 73 34 93 89 72 165-12 44-8 77 8 117 52 133 30 263-57 372 16 127 30 237-109 289-29 48-82 60-130 31-180 0-368 31-548 6-65-9-120-40-176-71-65 5-137-2-188-47-86-75-29-147 59-189 83-39 162-5 238-31 78-26 160-44 242-54 117-13 113-57 189-142 0-40 12-72 46-97-4-46-14-86-11-133-150-69-159-333 23-370 41-8 81-5 122-5z" style="fill:#2b0000"/><path class="fil0" d="m2418 2913c-36-17-115-49-77-101 16-24 45-38 70-52 34 7 71 21 79 59 5 26-5 54-17 76-11 22-33 25-55 18z" style="fill:#2b0000"/><path class="fil0" d="m2389 768c7-5 15-11 22-17 4-4 9-8 12-11 20-21 39-51 42-80 5-44-42-55-76-56-28-2-56 9-81 20-34 15-72 36-95 65-27 34-20 76 6 109 21 25 46 24 74 14 24-8 47-17 69-29l27-15z" style="fill:#2b0000"/><path class="fil0" d="m2197 278c5-18 9-36 7-55-5-42-52-57-88-49-44 11-81 35-108 71-28 37-63 107-9 138 5 3 10 5 16 7 9 18 29 11 45 10 38-4 76-23 100-53 14-16 24-35 32-54 2-5 3-10 5-15z" style="fill:#2b0000"/><path class="fil0" d="m1665 4c-31 16-67 39-86 70-20 33-9 72 18 98 23 22 58 19 86 10 53-16 78-72 77-124 0-10-1-19-5-28-15-34-60-33-90-26z" style="fill:#2b0000"/><path class="fil0" d="m1516 171c-22 8-33 25-42 45-14 30-47 47-52 81-5 41 25 78 61 93 47 20 91-12 119-48 20-24 28-53 29-84 1-20-2-37-12-55-23-40-61-44-103-32z" style="fill:#2b0000"/><path class="fil0" d="m1852 411c-14 17-21 36-35 54-13 16-37 24-41 44-8 38 11 68 50 81 36 13 78 10 109-11 16-11 29-24 40-39 6-9 12-18 16-27 20-39 7-98-37-115-21-8-44-10-67-7-16 2-25 10-35 20z" style="fill:#2b0000"/><path class="fil0" d="m1496 522c4-34 7-67-12-98-21-35-67-44-105-42 0 0-10 3-12 4-42 35-83 89-77 147 3 39 23 77 67 80 51 3 111-20 132-69 3-8 5-15 7-22z" style="fill:#2b0000"/><path class="fil0" d="m1588 679c0 37 17 63 47 84 32 23 69 28 106 14 29-11 44-34 53-64 6-19 7-41 1-61-8-27-53-104-82-93-47 18-84 59-113 101z" style="fill:#2b0000"/><path class="fil0" d="m2120 767c-17 2-31 7-44 18-32 26-58 62-71 101-7 18-14 37 11 42 22 4 46 0 69-4 45-9 88-40 117-77 2-3 4-5 7-8-3-39-33-70-72-72h-17z" style="fill:#2b0000"/><path class="fil0" d="m2107 1212c-55 0-95 21-116 73-11 26 16 37 36 47 42 21 86 9 119-24 4-4 9-6 9-12 5-40-6-74-48-84z" style="fill:#2b0000"/><path class="fil0" d="m1941 1252c0-7-13-15-20-17-1-1-3-2-3-1-5 1-10 1-15 1-28 16-55 34-80 54-13 11-26 25-27 43 0 16 14 30 26 38 21 15 48 27 74 22 12-3 23-9 32-17 2-2 5-3 7-5 20-20 39-47 33-76-4-18-15-30-27-42z" style="fill:#2b0000"/><path class="fil0" d="m2190 1179c-3 13-7 22-1 35 2 2 3 3 3 6-3 12-5 24-3 37 6 45 53 51 91 50 33 0 71-2 99-22 22-15 37-38 46-63 3-9 5-18 4-27-1-33-38-46-65-50-17-3-34-1-51 1-43 3-83 16-123 33z" style="fill:#2b0000"/><path class="fil0" d="m1910 910c-47 6-81 29-116 60-14 12-33 28-36 48-4 20 17 35 33 42 30 14 64 24 96 13 38-13 69-47 85-83 18-44-27-68-62-80z" style="fill:#2b0000"/><path class="fil0" d="m1564 971c-10-63 22-92-33-117-19-9-44-19-65-18-15-17-33-31-52-44-1-38-9-75-33-105-17-22-114-102-129-40-66 36-103 101-85 175 10 38 35 78 55 111-24 97-19 180 71 240 79 52 175 107 202 180 22 60 53 149 116 138 58-10 134-78 95-140-15-23-34-78-32-105 7-84-1-149-57-200-18-17-43-14-53-75z" style="fill:#2b0000"/><path class="fil0" d="m724 475c44-65 14-163-58-194-18-8-37-15-56-7-30 13-57 49-64 81-19 87-12 177 13 262-17 30-18 57-1 87 33 57 77-5 100-36 39-53 62-119 65-185 1-3 1-5 1-8z" style="fill:#2b0000"/><path class="fil0" d="m1020 844c-65 21-129 61-202 75-8 1-22 35-31 36s-12-31-21-31c-58 0-79-96-113-141-20-27-55-4-82-28-35-29-29 136-39 186-15 80-40 144-37 228 4 121 44 238 138 320 92 79 174 13 260-41 82-51 150-110 200-190 5-7-17-33-13-41s36 3 40-5c53-105 109-437-100-368z" style="fill:#2b0000"/><path class="fil0" d="m1024 1429c-65 36-124 75-167 136-49 69 15 175 71 220 49 40 113 53 174 51 53-1 70-16 114-47 96-68 191-140 284-213 45-35-9-150-48-171-52-28-113-36-171-32-50 3-98 4-147 14-39 9-75 24-110 42z" style="fill:#2b0000"/></g><path class="fil1" d="m232.48 109.03h-0.17034l-1.4844 0.38936-0.65704 0.58404-0.77872 0.26768-1.2654 0.75438-0.65705 0.38936-0.41369 0.60837-1.1681 1.0707v0.34069l-0.58403 0.26768-0.85173 1.0707-0.41369 0.51103-0.41369 1.0707-0.82739 0.99773-0.17034 0.34069-0.58404 1.1681-0.43803 0.4867-0.80305 1.9468 2.4092-1.0221 1.8251-1.0707 0.58404-0.41369 2.4335-2.2632 1.2654-1.3141 1.0707-1.5088 0.34069-0.26768 0.26768-0.4867 0.55971-0.92473 0.26768-0.85172 0.41369-0.99773zm-2.3118-5.6944 1.1437-0.17034 1.6791 0.073 1.0951 0.41369 1.0464 0.75439 1.1194 0.75438 1.4844 1.9225 0.51104 0.92472 0.41369 1.5088 0.17035 1.0707-0.17035 0.77872 0.0973 0.14601-0.26768 1.2654-0.99773 1.4114h-0.14601l-0.43803 0.4867-0.34069 0.0973h-0.4867l-0.58404 0.65704-0.43803 0.60837-0.80305 0.4867-2.2875 1.8981-0.75438 0.53537-0.4867 0.65704-0.99773 0.75439-0.75438 0.65704-0.31636 0.17034h-0.26768l-1.0221 0.92473-0.73004 0.26768-1.6061 0.9004-0.31635 0.34069h-0.60838l-0.90039 0.58403h-0.41369v0.24335l1.5818 0.65704 5.1103 1.8738 3.1635 1.3871 1.6548 0.77872 1.6061 0.82739 2.4092 1.5088 2.6768 1.5818 0.51104 0.17034 0.41369 0.31636-0.073 0.17034-0.26768-0.073-1.1437-0.0973v0.34069l-0.60837-0.073v0.073l0.073 0.41369-0.4867 0.34069h-0.24335l-0.34068 0.26768-0.24335-0.17034-1.0221-0.34069-0.5597 0.073-1.0221-0.26768h-0.17034l-2.2632-0.75438-1.3141-0.21902-5.524-1.8494-1.0221-0.4867-0.46236-0.17034-5.3537-1.8494-1.5088-0.31636-0.34069 0.75438-0.31636 1.3141-0.43802 1.4114-0.65705 2.3605-0.26768 0.51103-0.31636 0.75439 0.0973 0.5597-0.26768 0.41369-0.17034 0.82739-0.34069 0.75438-0.58404 0.82739-0.31635 0.36502v0.26769l-0.26769 0.48669-0.41369 0.24335-0.4137 1.3384-0.26768 0.31636-0.0973 0.26768-0.38936 0.24335-0.34069 0.68138h-0.85172l-0.21901 0.4867-0.75438-0.17035-0.073 0.24335h-0.43803l-0.58404 0.26768-0.65704-0.17034-1.5088-1.4114-0.26769-0.0973-0.38935-0.75439-0.26769-0.14601 0.0973-1.0221-0.26768-0.4137 0.073-0.48669 0.36503-2.2875v-1.5574l0.073-0.60837 0.65704-3.0905 1.6061-5.3293 0.82738-3.9423 1.2411-4.4046 0.68138-1.7521 0.65704-1.2898v-0.31635l0.4137-0.4867-0.073-0.43803 0.38936-1.5818 0.63271-1.4114v-0.26769l0.38936-0.65704 0.58404-0.58404 0.75438-0.073 0.60837-0.17035 0.73005 0.073 0.85172 0.4867 0.82739 0.36502h0.68137l0.24335-0.19468 0.58404-0.34069 2.5065-2.2388 1.3384-0.90039 0.82738-0.70571 1.8251-1.0464 2.1901-0.92472z" style="clip-rule:evenodd;fill:#2b0000;image-rendering:optimizeQuality;shape-rendering:geometricPrecision;stroke-width:.024335"/><path class="fil1" d="m258.57 124.19h-0.19468l-1.3141 0.21901-1.8008 0.75438-2.2875 1.1194-2.3118 1.8494-1.1681 1.1437-1.5818 1.9711 1.1681-0.0243 2.0685-0.75439 1.9711-0.99773 1.5574-1.0221 1.2411-1.1437 1.1194-1.0951zm-1.1681-2.9202 1.8251-0.58404 1.8251 0.19468 0.46236 0.46236 0.19468 0.65705-0.19468 0.21901 0.29202 0.85172-0.12167 1.1924-0.36503 0.75438-0.0973 0.34069-0.0973 0.29202-0.77871 1.0464-0.073 0.36503-0.38936 0.4867-0.65704 0.58403-0.38936 0.31636-0.92473 0.92472-1.1681 1.1194-1.0221 0.87606-0.0973 0.29202-0.58403 0.29201h-0.19468l-0.58404 0.46237-0.5597 0.26768-1.6061 1.1681-0.77872 0.29202-0.17034 0.26768-2.4822 0.94906-1.1437 0.0973-0.29202 0.85172 0.0973 0.29202 0.29202 0.4867 1.3384 0.73005 2.0685 0.58404 2.2875 0.29201 0.19468 0.21902 3.8206 0.14601 2.8472-0.14601 2.5795-0.41369 1.3141-0.29202h0.21901v0.19468l-1.4601 0.87605-1.3141 0.65704-0.073 0.17035-0.58404 0.21901-0.75438 0.073-0.21902 0.29202-1.2411 0.4867h-0.43803l-0.21901 0.29201-0.36502 0.0973-0.4867-0.0973-0.0973 0.0973h-0.58404l-0.26768 0.29202-1.2411 0.17035-0.77872 0.0973-1.1194 0.19468-0.68137-0.0973-0.0973 0.0973h-1.0221l-0.29202 0.19468-0.38936-0.0973h-0.5597l-0.21901-0.0973h-0.75439l-0.17034-0.19468h-0.38936l-0.68138-0.19468-0.17034-0.073v-0.12167l-0.0973-0.0973h-0.68138l-0.19468-0.073-0.36502 0.073-0.38936-0.29202-0.75438-0.53537-0.87606-0.87606-0.73005-1.0221-0.77871-1.7521-0.0973-0.65704 0.0973-0.29202-0.26769-1.0221v-0.21902l-0.14601-0.26768 0.14601-0.38936v-0.75438l0.0973-0.87606 1.1194-1.6061 1.3384-1.7034 0.97339-0.87605 0.82739-0.94906 0.68138-0.4867 3.5042-2.5552 2.5795-1.6304z" style="clip-rule:evenodd;fill:#2b0000;image-rendering:optimizeQuality;shape-rendering:geometricPrecision;stroke-width:.024335"/><path class="fil1" d="m279.52 124.92-0.0973-0.073-1.2411 0.17034-1.7034 1.2411-1.2654 1.1437-0.55971 0.75438-1.4114 2.9445-0.29202 0.87606v1.7278l0.29202 1.1194 0.17034 0.38936h0.4867l0.65704-0.38936 0.9734-1.3141 0.73005-1.1681 1.7521-3.5286zm7.4221-23.313 0.75438-0.29202 0.87606 0.29202 0.29202-0.21901 1.3141 0.51103 0.38935-0.21901 0.94907 0.68137 0.36502 0.65705-0.17035 1.6061-0.41369 1.1681-0.073 1.0221-0.17035 0.77872-1.0707 3.3339-0.46237 1.6061-1.1681 3.0662-0.36503 1.0464-0.29202 0.75438-0.36502 0.68138 0.073 0.38935-0.29202 0.36503-0.53537 0.58404v0.82738l-0.58404 1.1437-0.0973 0.68138-0.5597 0.4867 0.0973 0.53537v0.21901l-0.51103 1.4114-0.36503 0.58403-0.36502 1.8981v0.36502l-0.31636 0.58404 0.21902 0.4867-0.29202 0.38936-0.12168 1.6061-0.073 0.19468v1.6304l-0.0973 2.0685v1.0707l0.17034 1.4114 0.19468 0.75438 0.21902 0.21901 0.29202 1.3141 0.46236 1.2411h0.19468l0.29202 0.77871 0.0973 0.65705 0.65704 0.68137 0.19468 0.0973 0.5597 0.073 0.55971-0.073 0.77871-0.21901 0.0973 0.41369-0.19468 0.26769v0.46236l-1.0464 0.9734-0.94906 0.5597h-0.9734l-0.65704-0.5597-2.2875-3.8206-1.2411-3.5286-0.26768-0.65704-0.29202 0.17035v0.19468l-0.29202 0.38935-0.46237 0.65705-0.87605 0.87605-0.46237 0.4867-1.1437 0.65704-2.1901 0.65705-1.7034 0.26768-1.0707-0.073-1.3384-0.55971-1.3141-0.77871-1.1681-0.94907-0.82739-1.3384-0.87605-2.0928-0.19468-1.0464 0.12167-1.6304 0.65705-2.4822 1.2411-2.2632 1.5331-1.9955 0.92472-0.94906 2.3848-2.5795 3.1635-2.2875 0.82739-0.31636h1.4358l2.1171 0.70572 1.5818-5.0373 2.0198-6.3027 1.3384-3.3339 0.29202-1.0707-0.0973-1.1194 0.29202-0.94906h0.29202l0.26768-0.65704z" style="clip-rule:evenodd;fill:#2b0000;image-rendering:optimizeQuality;shape-rendering:geometricPrecision;stroke-width:.024335"/><polygon class="fil1" transform="matrix(.024335 0 0 .024335 125.41 96.594)" points="8345 1100 8345 1127 8336 1142 8340 1169 8329 1196 8336 1227 8325 1238 8322 1306 8309 1365 8309 1389 8311 1403 8302 1426 8298 1481 8287 1544 8275 1595 8275 1602 8280 1615 8275 1626 8277 1664 8271 1702 8277 1787 8277 1829 8271 1836 8264 1881 8249 1911 8243 1921 8264 1931 8257 1962 8264 1994 8264 2010 8253 2025 8245 2053 8249 2072 8257 2096 8257 2128 8257 2137 8240 2159 8249 2161 8249 2168 8236 2168 8228 2187 8233 2244 8222 2261 8224 2290 8207 2309 8200 2278 8196 2274 8179 2204 8171 2186 8171 2172 8160 2114 8150 2065 8153 2052 8147 2028 8140 1980 8133 1969 8133 1956 8121 1871 8106 1739 8082 1475 8082 1450 8075 1372 8075 1287 8064 1249 8068 1193 8068 1127 8068 1080 8068 1032 8064 1011 8064 1001 8068 953 8072 908 8072 846 8078 823 8078 781 8085 757 8082 716 8085 654 8088 607 8075 616 8064 647 8054 674 8048 688 8048 712 8040 727 8030 730 8013 770 8006 819 7995 832 7983 832 7975 857 7975 888 7961 895 7961 904 7941 963 7921 1032 7906 1046 7893 1091 7874 1145 7833 1265 7814 1314 7765 1381 7716 1457 7680 1485 7646 1512 7635 1506 7611 1515 7577 1515 7522 1509 7450 1488 7412 1464 7364 1419 7337 1385 7298 1278 7279 1107 7277 1004 7259 1042 7246 1078 7239 1116 7233 1132 7223 1175 7217 1243 7197 1356 7189 1392 7172 1450 7147 1526 7147 1544 7134 1581 7113 1629 7107 1644 7100 1688 7079 1742 7083 1760 7076 1791 7076 1804 7062 1825 7055 1873 7045 1887 7045 1925 7042 1965 7027 1986 7031 1999 7024 2014 7007 2034 6993 2037 6986 2055 6976 2063 6949 2063 6921 2072 6915 2059 6900 2065 6877 2048 6853 2021 6828 1986 6826 1959 6835 1925 6835 1842 6853 1722 6853 1664 6855 1615 6859 1584 6866 1372 6880 1156 6900 1019 6915 946 6949 774 6973 692 6983 644 7031 500 7049 469 7049 462 7083 424 7096 413 7110 377 7130 352 7138 331 7185 317 7227 315 7250 321 7296 328 7357 345 7381 359 7419 373 7426 382 7484 420 7518 469 7546 540 7556 585 7567 616 7567 778 7564 897 7564 1035 7564 1060 7569 1107 7577 1166 7601 1127 7611 1121 7662 1004 7684 953 7697 935 7711 901 7735 850 7831 647 7855 607 7890 524 7921 462 7934 438 7944 411 7961 377 7992 321 8021 261 8068 184 8085 156 8095 132 8117 105 8130 81 8147 56 8178 36 8202 29 8233 12 8264 5 8315 12 8380 56 8428 123 8442 143 8449 154 8460 184 8476 228 8483 286 8483 335 8487 404 8474 503 8474 547 8466 558 8463 593 8456 640 8432 757 8409 853 8393 909 8370 973 8363 1001 8363 1038 8356 1076" style="clip-rule:evenodd;fill:#2b0000;image-rendering:optimizeQuality;shape-rendering:geometricPrecision"/><polygon class="fil1" transform="matrix(.024335 0 0 .024335 125.41 96.594)" points="9239 1038 9239 1043 9234 1081 9237 1107 9232 1138 9219 1196 9206 1250 9189 1298 9178 1343 9168 1380 9158 1423 9139 1530 9130 1622 9136 1722 9152 1806 9130 1818 9110 1811 9106 1826 9091 1823 9081 1824 9069 1813 9055 1779 9046 1740 9034 1697 9028 1602 8985 1689 8946 1736 8861 1818 8792 1856 8739 1865 8700 1852 8658 1831 8610 1774 8576 1680 8567 1620 8576 1486 8602 1332 8662 1142 8714 1012 8756 961 8779 948 8782 948 8816 957 8838 1e3 8838 1056 8803 1194 8803 1223 8782 1319 8752 1500 8752 1620 8765 1637 8788 1618 8814 1568 8947 1253 8973 1189 9042 1034 9048 1014 9060 996 9080 973 9105 973 9136 965 9165 965 9218 978 9234 1004" style="clip-rule:evenodd;fill:#2b0000;image-rendering:optimizeQuality;shape-rendering:geometricPrecision"/><path class="fil1" d="m366.27 124.92-0.12168-0.073-1.2411 0.17034-1.7034 1.2411-1.2411 1.1437-0.58404 0.75438-1.4114 2.9445-0.29202 0.87606v1.7278l0.29202 1.1194 0.17034 0.38936h0.4867l0.68138-0.38936 0.94906-1.3141 0.75438-1.1681 1.7278-3.5286zm7.4222-23.313 0.73004-0.29202 0.87606 0.29202 0.29202-0.21901 1.3141 0.51103 0.38936-0.21901 0.94906 0.68137 0.38936 0.65705-0.19468 1.6061-0.38935 1.1681-0.0973 1.0221-0.17035 0.77872-1.0707 3.3339-0.46237 1.6061-1.1437 3.0662-0.38936 1.0464-0.29202 0.75438-0.36502 0.68138 0.0973 0.38935-0.31635 0.36503-0.53537 0.58404v0.82738l-0.58404 1.1437-0.073 0.68138-0.58404 0.4867 0.0973 0.53537v0.21901l-0.4867 1.4114-0.38936 0.58403-0.36502 1.8981v0.36502l-0.29202 0.58404 0.19468 0.4867-0.29202 0.38936-0.0973 1.6061-0.0973 0.19468v1.6304l-0.0973 2.0685v1.0707l0.19468 1.4114 0.19468 0.75438 0.19468 0.21901 0.29202 1.3141 0.46236 1.2411h0.19468l0.29202 0.77871 0.0973 0.65705 0.65704 0.68137 0.19468 0.0973 0.5597 0.073 0.58404-0.073 0.77872-0.21901 0.073 0.41369-0.19468 0.26769v0.46236l-1.0464 0.9734-0.94906 0.5597h-0.94906l-0.65704-0.5597-2.2875-3.8206-1.2411-3.5286-0.29201-0.65704-0.29202 0.17035v0.19468l-0.29202 0.38935-0.46237 0.65705-0.85172 0.87605-0.46236 0.4867-1.1681 0.65704-2.1901 0.65705-1.7034 0.26768-1.0707-0.073-1.3384-0.55971-1.3141-0.77871-1.1681-0.94907-0.82739-1.3384-0.87605-2.0928-0.19468-1.0464 0.12167-1.6304 0.65704-2.4822 1.2411-2.2632 1.5331-1.9955 0.92473-0.94906 2.4092-2.5795 3.1392-2.2875 0.82739-0.31636h1.4601l2.0928 0.70572 1.6061-5.0373 2.0198-6.3027 1.3141-3.3339 0.29202-1.0707-0.0973-1.1194 0.29202-0.94906h0.29202l0.26768-0.65704z" style="clip-rule:evenodd;fill:#2b0000;image-rendering:optimizeQuality;shape-rendering:geometricPrecision;stroke-width:.024335"/><path class="fil1" d="m211.23 151.2-0.21902-0.0243h-0.70571v0.51104l-0.17034 0.60837-0.073 0.0973 0.0973 0.29202-0.0487 0.92472 0.0243 0.24335-0.073 0.12168 0.0487 0.5597-0.073 0.80305-0.073 0.0973v0.38936l-0.073 0.38936-0.0973 0.4867 0.0243 0.43803-0.073 0.36502-0.14601 0.51103-0.0487 0.0973-0.0243 0.26769v0.53536l-0.0973 0.12168 0.0973 0.24335-0.12167 0.21901 0.073 0.26769 0.073 0.24335 0.46236-0.24335 0.31636-0.31636 0.19468-0.12167 0.51103-0.36503 0.4867-0.36502 0.43802-0.34069 0.36503-0.34069 0.17034-0.24335 0.21902-0.24335 0.24335-0.19467 0.19468-0.21902 0.36502-0.60837 0.17034-0.24335 0.19468-0.60837 0.0243-0.55971 0.0243-0.43802-0.0973-0.92473-0.21901-0.75438-0.24335-0.55971-0.19468-0.21901-0.41369-0.4867-0.4867-0.24335-0.43803-0.14601zm-1.7278-3.0419-0.0243-0.24334h0.0973l0.24335 0.21901 0.38936 0.0243h0.5597l0.9734 0.12168 0.34069 0.12167 0.14601 0.0243 0.5597 0.21901 0.46237 0.19468 0.12167 0.14601 0.36502 0.19468 0.34069 0.24335 0.19468 0.14601 0.0973 0.14601h0.073l0.26768 0.34069 0.0487 0.14601 0.19468 0.0973 0.073 0.0973 0.26769 0.48669 0.26768 0.38936 0.073 0.34069 0.14601 0.34069 0.073 0.43803 0.14601 0.0973 0.0973 0.46236 0.0243 0.68138-0.0973 0.34069 0.0973 0.0243 0.073 0.24335-0.0487 0.19468-0.12168 0.12168-0.0243 0.26768v0.29202l-0.14601 0.43803-0.0973 0.0973 0.0243 0.26768-0.19468 0.26768-0.14601 0.36503-0.14601 0.53537-0.29202 0.60837-0.51103 0.58404-0.55971 0.60837-0.43803 0.34069-0.31635 0.38936-0.17034 0.073-0.0487 0.12168-0.51104 0.26768-0.0243 0.0973-0.26769 0.24335-0.26768 0.17034-0.0487 0.0243v0.073h-0.24335l-0.58404 0.43803h-0.14601l-0.17034 0.31636-0.31635-0.0243-0.19468 0.14601-0.24335 0.0243v0.073l-0.12168 0.073-0.0973-0.0243-0.53536 0.14601 0.0243-0.19468-0.29202 0.073v0.17035l-0.12167 0.0487-0.12168 0.17034h-0.0973l-0.14601 0.24335-0.17034-0.0243 0.0243 0.24335-0.12167 0.17034-0.14601 0.0243-0.31635-0.0973-0.19468 0.19467h-0.12168l-0.0973-0.0973-0.14601 0.073v0.0243l-0.073 0.073-0.29202 0.0973-0.073-0.0487-0.0973 0.0973-0.073-0.17035-0.0243-0.24334 0.0973-0.0487v-0.17035l0.29202-0.29202 0.38936-0.46236-0.19468-1.1924v-0.31636l-0.0243-0.38935 0.0243-0.29202-0.0243-0.29202 0.0243-0.63271 0.0487-0.99773 0.0487-0.90039 0.0487-0.4867-0.0487-0.38936 0.0973-0.073 0.073-0.29202-0.0243-0.21902 0.0487-0.14601v-0.5597l0.073-0.29202 0.0973-0.38936 0.0487-0.17034v-0.26769h0.073l0.0487-0.17034 0.073-0.46236 0.073-0.46237 0.19468-0.48669v-0.34069l0.12167-0.4867 0.14601-0.34069-0.073-0.12167v-0.14601l-0.24335-0.21902-0.0973-0.34069v-0.12167l0.0487-0.0973 0.0243-0.29202 0.12168-0.24335 0.0487-0.073 0.12167-0.12168 0.24335-0.0973 0.26769-0.0487 0.19468-0.0973 0.21901-0.0973 0.0973-0.21901 0.12167-0.17035z" style="clip-rule:evenodd;fill:#2b0000;image-rendering:optimizeQuality;shape-rendering:geometricPrecision;stroke-width:.024335"/><path class="fil1" d="m222.31 156.31h-0.073l-0.4867 0.073-0.68138 0.29202-0.87606 0.43803-0.85172 0.68138-0.43803 0.43803-0.60837 0.73004h0.43803l0.77872-0.29201 0.75438-0.36503 0.58404-0.38936 0.46236-0.43803 0.41369-0.41369zm-0.43803-1.0951 0.68138-0.21902 0.70571 0.073 0.17035 0.17034 0.073 0.24335-0.073 0.073 0.0973 0.34069-0.0487 0.43802-0.14601 0.29202-0.0243 0.12168-0.0243 0.12167-0.29202 0.38936-0.0487 0.14601-0.12168 0.17034-0.26768 0.21902-0.14601 0.12167-0.77872 0.77872-0.38935 0.31635-0.0487 0.12168-0.21902 0.0973h-0.073l-0.21902 0.17034-0.19468 0.12168-0.60837 0.43803-0.29202 0.0973-0.073 0.0973-0.92473 0.36503-0.43803 0.0487-0.12167 0.31635 0.0487 0.0973 0.12167 0.19468 0.4867 0.26769 0.77872 0.21901 0.87605 0.12167 0.073 0.073 1.4358 0.0487 1.0707-0.0487 0.9734-0.14601 0.4867-0.12168h0.0973v0.073l-0.5597 0.34069-0.4867 0.24335-0.0487 0.073-0.21902 0.073-0.26768 0.0243-0.073 0.12168-0.48669 0.17034h-0.17035l-0.073 0.12168-0.14601 0.0243-0.17035-0.0243-0.0487 0.0243h-0.21901l-0.0973 0.0973-0.46236 0.073-0.29202 0.0487-0.4137 0.073-0.26768-0.0487-0.0243 0.0487h-0.38936l-0.12168 0.073-0.14601-0.0487h-0.21901l-0.073-0.0243h-0.26768l-0.073-0.073h-0.14601l-0.26769-0.073-0.0487-0.0487v-0.0243l-0.0487-0.0487h-0.24335l-0.073-0.0243-0.14601 0.0243-0.14601-0.0973-0.29202-0.21902-0.31635-0.31635-0.29202-0.38936-0.29202-0.65704-0.0243-0.24335 0.0243-0.12168-0.0973-0.38936v-0.073l-0.0487-0.0973 0.0487-0.14601v-0.29202l0.0487-0.31635 0.41369-0.60838 0.51104-0.65704 0.36502-0.31635 0.31635-0.36503 0.24335-0.17034 1.3141-0.9734 0.97339-0.60837z" style="clip-rule:evenodd;fill:#2b0000;image-rendering:optimizeQuality;shape-rendering:geometricPrecision;stroke-width:.024335"/><polygon class="fil1" transform="matrix(.024335 0 0 .024335 125.41 96.594)" points="4357 2649 4350 2661 4340 2669 4324 2680 4290 2686 4280 2687 4253 2692 4246 2692 4231 2695 4171 2702 4110 2705 4107 2701 4100 2701 4097 2697 4091 2699 4069 2699 4060 2701 4055 2696 4058 2684 4072 2676 4092 2665 4144 2651 4196 2642 4273 2631 4287 2627 4289 2626 4277 2609 4263 2596 4259 2592 4253 2584 4235 2569 4226 2563 4226 2562 4212 2549 4207 2543 4191 2509 4188 2474 4196 2447 4204 2432 4232 2406 4260 2386 4289 2372 4334 2354 4344 2351 4365 2351 4385 2357 4387 2358 4387 2361 4394 2378 4394 2390 4390 2398 4371 2411 4357 2411 4328 2431 4297 2454 4269 2483 4266 2494 4266 2499 4269 2508 4318 2556 4341 2586 4356 2615 4356 2618 4357 2621 4360 2633 4360 2634 4357 2644" style="clip-rule:evenodd;fill:#2b0000;image-rendering:optimizeQuality;shape-rendering:geometricPrecision"/><path class="fil1" d="m236.25 152.9 0.146-0.0487 0.24335 0.14601 0.24335 0.073 0.073 0.31635 0.073 0.0243-0.073 0.0973v0.4137l-0.0973 0.46236-0.38936 0.26769-0.41369 0.073-0.31636-0.073-0.41369-0.58404-0.0487-0.29202v-0.26769l0.073-0.29201 0.17035-0.0487v-0.0973l0.19468-0.14601h0.0973l0.073-0.073zm-0.9734 3.6016 0.34069-0.12168 0.19468 0.0487 0.12167-0.0487h0.073l0.26768 0.24335 0.14601 0.073 0.26768 0.51103 0.0243 0.34069v0.36502l-0.31636 0.68138-0.51103 1.6548-0.0973 1.0464-0.0487 0.34068 0.21902 0.073 0.65704-0.0243 0.82739-0.21901-0.17035 0.29202v0.0973l-0.19468 0.36502-0.14601 0.14601 0.0243 0.0973-0.24335 0.17035h-0.073l-0.073 0.14601-0.29202 0.12167-0.0487 0.073-0.65704 0.38936-0.24335 0.19468-0.4867 0.0487-0.0487 0.0487-0.12167-0.073-0.43803-0.19468-0.53537-0.38936-0.31635-0.38936-0.14601-0.36502-0.14601-0.77872v-0.9734l0.14601-0.58403 0.43802-1.0707 0.63271-1.0951 0.58404-0.75438z" style="clip-rule:evenodd;fill:#2b0000;image-rendering:optimizeQuality;shape-rendering:geometricPrecision;stroke-width:.024335"/><path class="fil1" d="m243.26 156 0.21901-0.43803-0.41369 0.19468-0.85172 0.60837-0.073 0.24335-0.38936 0.43803-0.17034 0.36502-0.0973 0.31635 0.0973 0.12168 0.21901-0.0487 0.29202-0.073 0.17035-0.19468 0.34069-0.34068 0.41369-0.58404zm0.94906-1.4358 0.21901-0.14601 0.51104 0.0487 0.17034 0.14601-0.0243 0.17034 0.14601 0.31635-0.14601 0.53537-0.073 0.24335 0.0243 0.0487-0.17035 0.43803 0.0487 0.34069-0.21901 0.82738-0.26769 1.4844-0.0973 0.21902v0.24335l-0.14601 0.51103-0.0973 0.46236-0.073 0.51104-0.12167 0.19468-0.073 0.43802-0.0243 0.0243-0.14601 0.0487-0.0487 0.24335-0.12168 0.36502v0.21902l-0.19468 0.75438-0.0243 0.36502-0.29202 0.21902 0.0243 0.17034-0.0487 0.0243v0.0487l-0.12168 0.19467-0.17034 0.19468-0.12168 0.0243-0.14601 0.073-0.19468 0.26769-0.19468 0.14601-0.24335 0.073-0.146 0.0487-0.31636 0.0487-0.46236 0.0487-0.99773-0.34069-0.51104-0.31635-0.41369-0.36502-0.31635-0.4137-0.34069-0.58404-0.21902-0.53536-0.14601-1.0221 0.073-0.65704 0.0973-0.29202v-0.36503l0.073-0.0243 0.073 0.0973 0.0973 0.0243 0.12167 0.14601 0.0243-0.0487h0.0487l0.0973 0.4137v0.073l0.36502 0.5597 0.073 0.0487 0.073 0.21902h0.073l0.14601 0.24335h0.14601l0.24335 0.53537 0.24335 0.24335 0.38936 0.31635 0.34069 0.17034 0.24335 0.0243 0.53537 0.21901 0.31635-0.0243 0.0973-1.1194 0.073-0.4867 0.0487-0.6327 0.12168-0.80306 0.0487-0.90039 0.12167-0.85172-0.0243-0.0243-0.73005 0.29201-0.46236-0.0487-0.63271-0.0973-0.12167-0.0243-0.21902-0.19468-0.21901-0.31635-0.0243-0.24335v-0.58404l0.14601-0.53537 0.51103-0.68138 0.4137-0.58403 0.31635-0.29202 0.12168-0.0487 0.53536-0.43803 0.24335-0.14601 0.14601-0.0243 0.21902-0.0973 0.38936-0.17035 0.51103 0.073 0.26768 0.14601 0.12168 0.146 0.0243 0.0973z" style="clip-rule:evenodd;fill:#2b0000;image-rendering:optimizeQuality;shape-rendering:geometricPrecision;stroke-width:.024335"/><polygon class="fil1" transform="matrix(.024335 0 0 .024335 125.41 96.594)" points="5158 2559 5158 2533 5162 2515 5163 2501 5166 2484 5166 2476 5161 2465 5153 2458 5137 2456 5117 2461 5111 2476 5106 2491 5098 2501 5091 2527 5085 2536 5080 2553 5067 2583 5052 2618 5046 2631 5045 2639 5036 2659 5036 2665 5031 2672 5021 2700 5018 2702 5012 2713 5004 2716 5004 2720 4995 2718 4977 2718 4969 2708 4966 2705 4960 2702 4953 2693 4950 2689 4944 2688 4942 2676 4947 2667 4954 2630 4956 2625 4969 2581 4972 2571 4987 2521 4999 2465 5019 2411 5029 2396 5045 2389 5065 2390 5066 2391 5076 2388 5079 2390 5091 2403 5095 2414 5120 2395 5130 2388 5150 2382 5187 2374 5232 2391 5234 2392 5246 2403 5248 2406 5259 2421 5263 2449 5261 2479 5259 2490 5252 2507 5243 2537 5237 2559 5233 2584 5229 2591 5226 2597 5229 2600 5230 2609 5230 2620 5225 2634 5226 2675 5233 2695 5246 2732 5253 2745 5258 2754 5250 2756 5244 2761 5239 2755 5230 2755 5230 2757 5226 2759 5218 2756 5206 2753 5173 2715 5156 2661 5154 2653 5155 2649 5150 2637 5154 2590 5149 2587 5156 2569 5155 2566 5155 2562" style="clip-rule:evenodd;fill:#2b0000;image-rendering:optimizeQuality;shape-rendering:geometricPrecision"/><polygon class="fil1" transform="matrix(.024335 0 0 .024335 125.41 96.594)" points="6175 2189 6191 2184 6210 2185 6239 2184 6285 2179 6335 2176 6384 2179 6420 2173 6466 2178 6508 2179 6562 2192 6584 2208 6576 2213 6561 2215 6559 2218 6549 2222 6537 2224 6534 2232 6521 2232 6513 2238 6491 2236 6488 2239 6487 2245 6485 2245 6480 2241 6473 2241 6470 2241 6469 2242 6468 2246 6458 2239 6445 2244 6440 2249 6418 2252 6408 2252 6369 2256 6357 2260 6355 2262 6349 2277 6335 2319 6311 2391 6294 2448 6282 2492 6275 2526 6268 2544 6266 2563 6259 2580 6257 2590 6255 2599 6252 2608 6250 2621 6247 2633 6243 2647 6237 2667 6235 2687 6233 2701 6232 2717 6233 2723 6229 2738 6224 2747 6220 2773 6215 2794 6211 2796 6212 2802 6210 2804 6201 2796 6192 2743 6193 2736 6189 2728 6186 2701 6187 2694 6188 2684 6188 2668 6184 2662 6185 2606 6186 2590 6185 2585 6189 2571 6187 2566 6190 2534 6191 2530 6194 2489 6201 2465 6206 2430 6208 2426 6210 2417 6212 2397 6217 2383 6222 2360 6226 2342 6232 2317 6233 2313 6240 2281 6241 2267 6245 2260 6226 2261 6221 2263 6197 2265 6171 2264 6145 2262 6107 2261 6070 2248 6065 2248 6044 2244 6036 2232 6036 2226 6045 2218 6046 2216 6060 2211 6070 2214 6080 2210 6085 2201 6119 2194 6134 2192 6142 2188 6152 2183 6155 2183 6163 2181" style="clip-rule:evenodd;fill:#2b0000;image-rendering:optimizeQuality;shape-rendering:geometricPrecision"/><path class="fil1" d="m286.84 156.31h-0.073l-0.4867 0.073-0.68138 0.29202-0.87605 0.43803-0.85173 0.68138-0.43802 0.43803-0.60838 0.73004h0.43803l0.77872-0.29201 0.75438-0.36503 0.58404-0.38936 0.46236-0.43803 0.4137-0.41369zm-0.43803-1.0951 0.68138-0.21902 0.68138 0.073 0.17034 0.17034 0.0973 0.24335-0.0973 0.073 0.12168 0.34069-0.0487 0.43802-0.14601 0.29202-0.0243 0.12168-0.0243 0.12167-0.29202 0.38936-0.0487 0.14601-0.14601 0.17034-0.24335 0.21902-0.14601 0.12167-0.77871 0.77872-0.38936 0.31635-0.0487 0.12168-0.21902 0.0973h-0.073l-0.21902 0.17034-0.19468 0.12168-0.60837 0.43803-0.29202 0.0973-0.073 0.0973-0.92473 0.36503-0.43803 0.0487-0.12167 0.31635 0.0487 0.0973 0.12167 0.19468 0.4867 0.26769 0.77872 0.21901 0.87606 0.12167 0.073 0.073 1.4358 0.0487 1.0707-0.0487 0.97339-0.14601 0.4867-0.12168h0.073v0.073l-0.53537 0.34069-0.51104 0.24335-0.0243 0.073-0.21902 0.073-0.26768 0.0243-0.0973 0.12168-0.46236 0.17034h-0.17035l-0.073 0.12168-0.14601 0.0243-0.17035-0.0243-0.0487 0.0243h-0.21902l-0.0973 0.0973-0.46236 0.073-0.29202 0.0487-0.41369 0.073-0.26769-0.0487-0.0243 0.0487h-0.38936l-0.12168 0.073-0.14601-0.0487h-0.21901l-0.073-0.0243h-0.26769l-0.073-0.073h-0.14601l-0.26769-0.073-0.0487-0.0487v-0.0243l-0.0487-0.0487h-0.24335l-0.0973-0.0243-0.12167 0.0243-0.14601-0.0973-0.29202-0.21902-0.31635-0.31635-0.29202-0.38936-0.29202-0.65704-0.0243-0.24335 0.0243-0.12168-0.0973-0.38936v-0.073l-0.0487-0.0973 0.0487-0.14601v-0.29202l0.0243-0.31635 0.43802-0.60838 0.4867-0.65704 0.38936-0.31635 0.31635-0.36503 0.24335-0.17034 1.3141-0.9734 0.97339-0.60837z" style="clip-rule:evenodd;fill:#2b0000;image-rendering:optimizeQuality;shape-rendering:geometricPrecision;stroke-width:.024335"/><polygon class="fil1" transform="matrix(.024335 0 0 .024335 125.41 96.594)" points="6995 2630 7065 2610 7068 2608 7068 2610 7059 2619 7049 2630 7045 2635 7042 2639 7023 2654 7017 2655 7011 2663 7005 2666 7004 2669 6973 2682 6973 2684 6962 2691 6954 2689 6946 2697 6940 2697 6939 2700 6899 2713 6897 2712 6878 2716 6875 2719 6870 2723 6846 2720 6812 2714 6806 2712 6782 2695 6760 2666 6759 2661 6750 2639 6747 2613 6753 2600 6754 2589 6757 2589 6766 2570 6781 2546 6809 2508 6870 2442 6897 2418 6920 2404 6942 2392 6946 2392 6971 2392 6983 2399 6987 2404 6992 2412 6992 2414 6996 2424 6998 2426 6998 2434 6989 2449 6970 2460 6967 2458 6958 2461 6940 2475 6914 2505 6900 2523 6887 2541 6871 2567 6847 2600 6840 2614 6840 2626 6864 2635 6882 2638 6933 2638" style="clip-rule:evenodd;fill:#2b0000;image-rendering:optimizeQuality;shape-rendering:geometricPrecision"/><polygon class="fil1" transform="matrix(.024335 0 0 .024335 125.41 96.594)" points="7396 2433 7394 2445 7391 2458 7383 2473 7376 2499 7350 2586 7345 2598 7336 2623 7330 2632 7330 2636 7324 2651 7321 2659 7321 2662 7317 2678 7311 2687 7305 2694 7301 2705 7297 2710 7290 2712 7282 2715 7279 2712 7278 2696 7279 2655 7281 2637 7315 2479 7318 2439 7316 2436 7311 2436 7300 2437 7271 2454 7263 2464 7256 2470 7243 2487 7221 2525 7193 2580 7181 2605 7138 2704 7128 2719 7123 2721 7120 2725 7101 2727 7097 2723 7088 2714 7082 2694 7080 2682 7088 2656 7113 2582 7162 2412 7190 2327 7222 2252 7253 2194 7277 2163 7290 2156 7311 2157 7316 2169 7320 2180 7315 2209 7315 2214 7312 2225 7293 2269 7271 2330 7268 2334 7265 2348 7259 2357 7259 2359 7253 2373 7255 2374 7287 2361 7306 2357 7321 2357 7340 2361 7356 2367 7368 2371 7383 2391 7393 2402 7396 2416" style="clip-rule:evenodd;fill:#2b0000;image-rendering:optimizeQuality;shape-rendering:geometricPrecision"/><polygon class="fil1" transform="matrix(.024335 0 0 .024335 125.41 96.594)" points="7780 2390 7768 2394 7755 2406 7744 2429 7739 2449 7740 2469 7744 2479 7774 2501 7781 2505 7804 2518 7817 2527 7828 2533 7837 2537 7856 2549 7859 2554 7882 2566 7897 2577 7919 2592 7941 2615 7949 2622 7959 2632 7971 2643 7981 2656 7992 2673 7997 2690 7999 2706 7997 2719 7997 2729 7996 2737 7988 2754 7965 2773 7942 2783 7932 2788 7921 2790 7903 2795 7877 2799 7849 2799 7814 2797 7795 2795 7779 2793 7770 2793 7746 2788 7735 2788 7730 2786 7725 2786 7723 2784 7720 2786 7716 2781 7713 2783 7713 2787 7712 2790 7708 2787 7704 2787 7700 2780 7694 2777 7691 2779 7685 2778 7685 2779 7680 2780 7678 2779 7673 2780 7668 2777 7665 2777 7661 2774 7659 2775 7659 2774 7660 2773 7671 2770 7689 2767 7702 2767 7712 2765 7727 2764 7746 2758 7748 2757 7777 2754 7787 2753 7800 2752 7820 2752 7826 2749 7846 2748 7852 2748 7858 2744 7872 2743 7881 2743 7885 2740 7895 2739 7902 2739 7908 2738 7914 2739 7921 2736 7930 2727 7940 2727 7946 2723 7954 2717 7957 2708 7958 2700 7954 2695 7955 2687 7952 2681 7949 2676 7944 2671 7940 2667 7932 2660 7922 2653 7908 2642 7894 2637 7875 2624 7862 2617 7853 2614 7835 2602 7826 2599 7819 2593 7814 2593 7799 2588 7793 2584 7771 2578 7744 2570 7723 2566 7720 2563 7704 2558 7690 2550 7674 2535 7661 2525 7643 2508 7633 2492 7629 2479 7625 2465 7625 2427 7632 2420 7637 2411 7637 2400 7646 2382 7655 2372 7664 2359 7687 2335 7702 2323 7722 2308 7739 2293 7755 2280 7794 2253 7813 2241 7835 2224 7865 2206 7872 2204 7881 2195 7911 2175 7942 2157 7951 2146 7956 2144 7964 2136 7973 2133 7982 2125 7989 2125 7998 2121 8009 2121 8028 2124 8054 2139 8060 2157 8065 2171 8068 2180 8071 2192 8066 2204 8058 2214 8046 2222 8031 2229 8017 2237 8004 2245 7983 2257 7964 2265 7947 2276 7934 2284 7920 2288 7912 2294 7902 2299 7892 2301 7883 2306 7877 2309 7870 2315 7857 2321 7855 2326 7840 2336 7821 2352 7806 2364 7801 2369 7788 2379" style="clip-rule:evenodd;fill:#2b0000;image-rendering:optimizeQuality;shape-rendering:geometricPrecision"/><polygon class="fil1" transform="matrix(.024335 0 0 .024335 125.41 96.594)" points="8324 2418 8324 2420 8322 2434 8323 2444 8321 2456 8316 2478 8311 2498 8305 2516 8301 2533 8297 2547 8293 2563 8286 2603 8283 2638 8285 2676 8291 2707 8283 2712 8275 2709 8274 2715 8268 2714 8264 2714 8260 2710 8255 2697 8251 2682 8247 2666 8244 2630 8228 2663 8214 2681 8181 2712 8155 2726 8136 2730 8121 2725 8105 2717 8087 2695 8074 2660 8071 2637 8074 2587 8084 2529 8107 2457 8126 2408 8142 2389 8151 2384 8152 2384 8165 2387 8173 2404 8173 2425 8160 2477 8160 2488 8152 2524 8141 2592 8141 2637 8146 2643 8154 2636 8164 2617 8214 2499 8224 2475 8250 2416 8252 2409 8256 2402 8264 2394 8273 2394 8285 2391 8296 2391 8316 2395 8322 2405" style="clip-rule:evenodd;fill:#2b0000;image-rendering:optimizeQuality;shape-rendering:geometricPrecision"/><path class="fil1" d="m335.68 157.5-0.43803-0.31635-0.68138 0.0243-0.4867 0.12168-0.43803 0.34068-0.0973 0.46237-0.46237 0.24335 0.0973 0.90039h0.36503l0.36502 0.26768 0.70571 0.0243 0.4867-0.24335 0.43803 0.0487 0.38936-0.34069 0.24335-0.65704-0.19468-0.58404zm-3.2852-4.575 0.14601-0.19468 0.43803-0.14601 0.31636 0.17034h0.0243l0.58404 0.58404 0.14601 0.38936 0.0973 0.36502 0.17034 0.36503-0.0243 0.24335h0.31635l0.36502 0.073 0.12168-0.0243h0.24335l0.87606 0.17035 0.58403 0.29202 0.21902 0.14601 0.21901 0.0487 0.073 0.12167 0.31635 0.29202 0.17034 0.17035 0.21902 0.38935 0.073 0.14601 0.26769 0.17035 0.0243 0.19468v0.0243l-0.0243 0.0973 0.14601 0.34069 0.0243 0.21901 0.0973 0.21902v0.24335l-0.0243 0.70571-0.19468 0.41369-0.14601 0.60838-0.36503 0.31635v0.19468l-0.31635 0.24335-0.19468 0.073-0.073 0.073-0.26769 0.26768-0.38936 0.19468-0.14601 0.14601-0.31635 0.0973-0.0973 0.0487-0.19468 0.0973-0.073-0.073-0.29202 0.146-0.4867 0.073v-0.12168l-0.073-0.0487-0.073 0.0487-0.63271 0.12168-0.73004-0.17035-0.65705-0.12167h-0.12167l-0.80305-0.31635-0.24335 0.0243 0.0487 0.21902-0.0487 0.26768-0.17035 0.46236-0.0973 0.4867-0.0973 0.43803-0.17034 0.41369-0.0487 0.4137-0.24335 0.5597-0.14601 0.43803-0.0487 0.0973-0.17034 0.58404 0.0973 0.0243 0.073 0.31635v0.0487l-0.26768 0.24335 0.073 0.12168-0.29202 0.26768-0.14601-0.14601h-0.0487l-0.0973 0.12168 0.0487 0.24335-0.073 0.26768-0.21902 0.31635v0.12168l-0.21901 0.0973h-0.38936l-0.14601-0.0487-0.17034-0.21902-0.21902-0.48669-0.12167-0.53537 0.0487-0.80305 0.0973-1.0221 0.21901-1.2411 0.17035-0.75438 0.5597-2.4578 0.38936-1.4358-0.0487-0.17034 0.12167-0.14601-0.14601-0.21902-0.0973-0.14601v-0.38936l0.12168-0.073 0.073-0.14601h-0.0973v-0.0973l0.24335-0.14601 0.14601-0.21901 0.29202-0.21902 0.21902-0.46236 0.73004-1.6548 0.77872-1.3628z" style="clip-rule:evenodd;fill:#2b0000;image-rendering:optimizeQuality;shape-rendering:geometricPrecision;stroke-width:.024335"/><path class="fil1" d="m346.2 157.5-0.43803-0.31635-0.68138 0.0243-0.4867 0.12168-0.43802 0.34068-0.0973 0.46237-0.46237 0.24335 0.0973 0.90039h0.36503l0.36502 0.26768 0.73005 0.0243 0.46236-0.24335 0.43803 0.0487 0.38936-0.34069 0.24335-0.65704-0.19468-0.58404zm-3.2852-4.575 0.14601-0.19468 0.43802-0.14601 0.31636 0.17034h0.0243l0.58404 0.58404 0.14601 0.38936 0.0973 0.36502 0.17034 0.36503-0.0243 0.24335h0.34069l0.34069 0.073 0.12167-0.0243h0.24335l0.90039 0.17035 0.5597 0.29202 0.21902 0.14601 0.21901 0.0487 0.073 0.12167 0.31635 0.29202 0.17035 0.17035 0.21901 0.38935 0.073 0.14601 0.26769 0.17035 0.0243 0.19468v0.0243l-0.0243 0.0973 0.14601 0.34069 0.0243 0.21901 0.0973 0.21902v0.24335l-0.0243 0.70571-0.19468 0.41369-0.14601 0.60838-0.36502 0.31635v0.19468l-0.29202 0.24335-0.21902 0.073-0.073 0.073-0.26769 0.26768-0.36502 0.19468-0.17034 0.14601-0.31636 0.0973-0.0973 0.0487-0.19468 0.0973-0.0487-0.073-0.29202 0.146-0.51103 0.073v-0.12168l-0.073-0.0487-0.073 0.0487-0.63271 0.12168-0.73004-0.17035-0.65705-0.12167h-0.12167l-0.80305-0.31635-0.24335 0.0243 0.0487 0.21902-0.0487 0.26768-0.17035 0.46236-0.0973 0.4867-0.0973 0.43803-0.17034 0.41369-0.0487 0.4137-0.24335 0.5597-0.14601 0.43803-0.0487 0.0973-0.17034 0.58404 0.0973 0.0243 0.073 0.31635v0.0487l-0.26768 0.24335 0.073 0.12168-0.29202 0.26768-0.14601-0.14601h-0.0487l-0.0973 0.12168 0.0487 0.24335-0.073 0.26768-0.21901 0.31635v0.12168l-0.21902 0.0973h-0.38936l-0.14601-0.0487-0.17034-0.21902-0.21902-0.48669-0.12167-0.53537 0.0487-0.80305 0.0973-1.0221 0.21901-1.2411 0.17035-0.75438 0.5597-2.4578 0.38936-1.4358-0.0487-0.17034 0.12167-0.14601-0.146-0.21902-0.0973-0.14601v-0.38936l0.12167-0.073 0.073-0.14601h-0.0973v-0.0973l0.24334-0.14601 0.14601-0.21901 0.29202-0.21902 0.21902-0.46236 0.73004-1.6548 0.77872-1.3628z" style="clip-rule:evenodd;fill:#2b0000;image-rendering:optimizeQuality;shape-rendering:geometricPrecision;stroke-width:.024335"/><path class="fil1" d="m355.61 156.43-0.12168-0.12167h-0.14601l-0.19467 0.073-0.14601 0.0973-0.24335 0.21902-0.29202 0.19468-0.4867 0.58403-0.36502 0.58404-0.34069 0.53537-0.4137 0.77872-0.29202 0.87605-0.0243 0.46237 0.12167 0.21901 0.24335 0.0487 0.29202-0.0243 0.31636-0.0973 0.36502-0.14601 0.51103-0.36503 0.4137-0.46236 0.41369-0.60837 0.29202-0.90039 0.073-0.53537 0.0487-0.82739zm-0.75438-2.0685 0.43802-0.24335 0.21902 0.0487 0.36502 0.0487 0.43803 0.073 0.14601 0.17035 0.14601 0.29201v0.073l-0.073 0.073 0.0973 0.073 0.24335 0.36502-0.0973 0.21902 0.17035 0.0243-0.0243 0.12168 0.14601 0.12167 0.0243 0.34069 0.21901 0.4867 0.19468 0.75438 0.0243 0.21901 0.073 0.29202 0.073 0.34069-0.073 0.17035-0.073 0.31635 0.0973 0.31635-0.0243 0.14601-0.073 0.43803-0.24335 0.65704v0.29202l-0.14601 0.19468-0.26769 0.12168-0.073 0.36502-0.41369 0.43803-0.19468 0.26768-0.4867 0.31636-0.36503 0.26768-0.19467 0.12168v0.073l-0.29202 0.24335h-0.19468l-0.12168 0.12167-0.0973-0.0487-0.073 0.073-0.53537 0.17034-0.24335-0.0487-0.0487 0.0973h-0.073l-0.0487-0.073-0.21902 0.14601h-0.60833l-0.12167-0.073-0.073 0.0243-0.65704-0.12168-0.4137-0.21901-0.34068-0.19468-0.24335-0.24335-0.17035-0.21901-0.073-0.24335-0.073-0.073-0.0973-0.19468v-0.24335l-0.0487-0.38935-0.0973-0.073-0.0243-0.26768-0.14601-0.0973-0.0243-0.21902v-0.21901l0.14601-0.073-0.0243-0.0487v-0.12167l-0.0487-0.46236 0.0487-0.31636 0.34069-0.73004 0.14601-0.4137 0.19468-0.12167 0.073-0.31636 1.2168-1.6791 0.41369-0.43802 0.29202-0.31636 0.82739-0.73004 0.21901-0.0973 0.19468-0.17035 0.29202-0.12167 0.12167 0.073 0.19468-0.073z" style="clip-rule:evenodd;fill:#2b0000;image-rendering:optimizeQuality;shape-rendering:geometricPrecision;stroke-width:.024335"/><polygon class="fil1" transform="matrix(.024335 0 0 .024335 125.41 96.594)" points="9704 2550 9689 2580 9672 2645 9666 2685 9664 2698 9657 2731 9654 2737 9639 2741 9630 2748 9621 2750 9614 2747 9613 2741 9599 2721 9596 2710 9598 2706 9595 2703 9592 2694 9595 2685 9599 2675 9601 2654 9621 2566 9651 2467 9672 2420 9688 2401 9697 2396 9710 2396 9726 2412 9726 2432 9725 2442 9743 2432 9770 2424 9807 2426 9825 2429 9856 2445 9868 2455 9878 2475 9879 2485 9869 2495 9869 2498 9857 2510 9847 2508 9842 2501 9832 2496 9799 2489 9788 2489 9767 2492 9743 2504 9726 2519" style="clip-rule:evenodd;fill:#2b0000;image-rendering:optimizeQuality;shape-rendering:geometricPrecision"/><polygon class="fil1" transform="matrix(.024335 0 0 .024335 125.41 96.594)" points="10224 2411 10208 2416 10168 2428 10131 2441 10118 2448 10099 2456 10085 2476 10084 2490 10080 2498 10073 2512 10072 2520 10071 2526 10065 2537 10057 2563 10056 2574 10048 2596 10044 2614 10043 2627 10040 2631 10041 2634 10043 2658 10044 2660 10060 2669 10075 2668 10093 2659 10097 2656 10101 2656 10101 2659 10097 2664 10096 2674 10093 2681 10088 2693 10078 2702 10065 2718 10047 2731 10034 2736 10022 2745 9991 2736 9965 2721 9947 2701 9938 2675 9932 2634 9937 2593 9959 2510 9970 2473 9953 2476 9909 2475 9888 2465 9879 2457 9876 2454 9871 2442 9867 2438 9871 2428 9870 2422 9879 2410 9896 2404 9937 2386 9984 2376 10009 2372 10013 2370 10048 2299 10075 2257 10090 2240 10101 2239 10115 2239 10121 2238 10126 2242 10135 2251 10146 2267 10151 2286 10153 2303 10141 2348 10140 2356 10150 2358 10172 2360 10209 2364 10255 2367 10302 2373 10320 2381 10323 2383 10321 2385 10300 2391 10286 2398 10277 2398 10273 2403 10248 2404 10246 2408 10242 2410" style="clip-rule:evenodd;fill:#2b0000;image-rendering:optimizeQuality;shape-rendering:geometricPrecision"/><path class="fil1" d="m261.95 159.06 0.14601-0.68137-0.14601 0.14601-0.19468 0.0243-0.14601 0.073-0.14601 0.17034-0.41369 0.24335-0.0973 0.0487-0.46236 0.29202v0.073l-0.0973 0.0487-0.0243 0.0487-0.17034 0.17035-0.0487 0.073v0.073l-0.12168 0.12167 0.0243 0.17034 0.26768 0.17035 0.26769 0.073 0.68137 0.0243h0.46237zm0.85172-2.8472h-0.0243l-0.55971 0.21901-0.43802 0.24335 0.87605 0.0487zm2.6768-4.3073 0.0243-0.0243 0.26768 0.0487 0.14601 0.19467v0.31632l-0.0487 0.31635v0.17035l-0.19468 0.6327 0.0487 0.0487-0.12167 0.26769-0.14601 0.41369 0.34069-0.073h0.26768l0.21901 0.0487 0.12168 0.0487h0.0487l0.073 0.073 0.17035 0.0973 0.12167 0.12168 0.0973 0.26768-0.0487 0.0243h-0.14601l-0.0487 0.0973-0.073 0.0243-0.14601-0.073h-0.29202l-0.24335 0.0487-0.29202 0.0973v0.073l-0.31635 0.0487-0.073 0.0243-0.0973 0.17035-0.24335 0.21901-0.21901 0.51103-0.073 0.19468-0.14601 0.29202-0.14601 0.21902 0.31635 0.073 0.34069 0.073 0.14601 0.0487 0.0243 0.073-0.0487 0.0243v0.0487l-0.17034 0.0973v0.073l-0.14601 0.0487 0.0487 0.14601-0.63271 0.17034h-0.0487l-0.17034 0.14601v0.17035l-0.12168 0.073-0.0243 0.073 0.14601 0.0243-0.0487 0.12168h-0.17035l-0.0243 0.24335-0.073 0.36502-0.073 0.38936-0.0487 0.29202-0.14601 0.51103-0.12167 0.073 0.0243 0.12168 1.1194-0.14601 1.3871-0.19468-0.36503 0.19468-0.29202 0.12167-0.19468 0.073-0.0973 0.0243-0.17034 0.0973-0.31635 0.12168-0.19468 0.12167-0.43803 0.12168-0.34069 0.19468-0.0243 0.0243-0.146 0.12168 0.0243 0.0973-0.073 0.0487-0.073 0.38935-0.12167 0.70572 0.0243 0.14601-0.0487 0.14601-0.073 0.0487-0.0243 0.38935v0.19471l-0.073 0.073-0.073-0.0243-0.073 0.073h-0.0973l-0.17035 0.17034-0.21901 0.26769-0.0487 0.0487-0.0243 0.0487-0.0487-0.0243-0.19467-0.21901-0.12168-0.31636-0.0487-0.70571-0.0487-1.2898-0.29202 0.0487v0.0243l-0.21901 0.0243v0.0973l-0.17035-0.0243-0.073 0.0487h-0.70571l-0.0973-0.0243h-0.19468l-0.0973-0.073h-0.073l-0.26768-0.12167-0.24335-0.21901-0.12167-0.17035-0.12168-0.29202-0.12167-0.17034-0.0243-0.43803 0.19468-0.51103 0.12168-0.19468 0.41369-0.36503 2.8228-1.6304 0.0487-0.12167-0.17035-0.0487-0.0973 0.0487-0.29201 0.0243-0.12168 0.0243-0.26768-0.0243-0.0243 0.0973h-0.5354l-0.31635-0.0487-0.0973-0.0973-0.0487-0.29202-0.073-0.0487 0.073-0.36503 0.14601-0.34069 0.24335-0.24334 0.90039-0.43803 1.6791-0.63271 0.14601-0.24335 0.70571-1.3141 0.43803-0.68137 0.43803-0.60838 0.19468-0.17034 0.0973-0.073z" style="clip-rule:evenodd;fill:#2b0000;image-rendering:optimizeQuality;shape-rendering:geometricPrecision;stroke-width:.024335"/></g><g transform="translate(-.52917)"><g transform="matrix(.024335 0 0 .024335 125.41 96.594)" style="clip-rule:evenodd;fill-rule:evenodd;fill:#aa0000;image-rendering:optimizeQuality;shape-rendering:geometricPrecision"><path class="fil0" d="m40 2226c6-113 79-173 189-162 1 0 2-1 3-1 14-27 35-36 60-50 88-46 185-64 284-64 66 0 148 3 208 33 101 50 140 156 133 263-3 52-13 101-33 148-17 42-38 78-66 113-32 39-71 55-120 55-195 0-392-2-584-37-147-28-128-203-74-298z" style="fill:#aa0000"/><path class="fil0" d="m2851 1566c69 15 105 132 93 194-14 80-106 110-175 124-146 28-346 93-388-106-12-56-53-81-11-133 93-116 243-143 381-104 33 9 67 16 100 25z" style="fill:#aa0000"/><path class="fil0" d="m2708 1966c52 3 74 46 90 91 29 87-31 139-109 164-55 17-114 28-146-32-19-37-33-88-27-130 13-91 120-98 192-93z" style="fill:#aa0000"/><path class="fil0" d="m2651 2252c38 7 78 51 96 84 47 85-56 128-121 146-85 24-123-36-138-112-22-103 84-122 163-118z" style="fill:#aa0000"/><path class="fil0" d="m2525 2540c39 12 87 30 95 75 6 35-15 69-34 95-26 34-58 14-88-1-34-18-87-55-61-99 19-32 56-53 88-70z" style="fill:#aa0000"/><path class="fil0" d="m2094 1664c111-4 191 51 220 159 73 34 93 89 72 165-12 44-8 77 8 117 52 133 30 263-57 372 16 127 30 237-109 289-29 48-82 60-130 31-180 0-368 31-548 6-65-9-120-40-176-71-65 5-137-2-188-47-86-75-29-147 59-189 83-39 162-5 238-31 78-26 160-44 242-54 117-13 113-57 189-142 0-40 12-72 46-97-4-46-14-86-11-133-150-69-159-333 23-370 41-8 81-5 122-5z" style="fill:#aa0000"/><path class="fil0" d="m2418 2913c-36-17-115-49-77-101 16-24 45-38 70-52 34 7 71 21 79 59 5 26-5 54-17 76-11 22-33 25-55 18z" style="fill:#aa0000"/><path class="fil0" d="m2389 768c7-5 15-11 22-17 4-4 9-8 12-11 20-21 39-51 42-80 5-44-42-55-76-56-28-2-56 9-81 20-34 15-72 36-95 65-27 34-20 76 6 109 21 25 46 24 74 14 24-8 47-17 69-29l27-15z" style="fill:#aa0000"/><path class="fil0" d="m2197 278c5-18 9-36 7-55-5-42-52-57-88-49-44 11-81 35-108 71-28 37-63 107-9 138 5 3 10 5 16 7 9 18 29 11 45 10 38-4 76-23 100-53 14-16 24-35 32-54 2-5 3-10 5-15z" style="fill:#aa0000"/><path class="fil0" d="m1665 4c-31 16-67 39-86 70-20 33-9 72 18 98 23 22 58 19 86 10 53-16 78-72 77-124 0-10-1-19-5-28-15-34-60-33-90-26z" style="fill:#aa0000"/><path class="fil0" d="m1516 171c-22 8-33 25-42 45-14 30-47 47-52 81-5 41 25 78 61 93 47 20 91-12 119-48 20-24 28-53 29-84 1-20-2-37-12-55-23-40-61-44-103-32z" style="fill:#aa0000"/><path class="fil0" d="m1852 411c-14 17-21 36-35 54-13 16-37 24-41 44-8 38 11 68 50 81 36 13 78 10 109-11 16-11 29-24 40-39 6-9 12-18 16-27 20-39 7-98-37-115-21-8-44-10-67-7-16 2-25 10-35 20z" style="fill:#aa0000"/><path class="fil0" d="m1496 522c4-34 7-67-12-98-21-35-67-44-105-42 0 0-10 3-12 4-42 35-83 89-77 147 3 39 23 77 67 80 51 3 111-20 132-69 3-8 5-15 7-22z" style="fill:#aa0000"/><path class="fil0" d="m1588 679c0 37 17 63 47 84 32 23 69 28 106 14 29-11 44-34 53-64 6-19 7-41 1-61-8-27-53-104-82-93-47 18-84 59-113 101z" style="fill:#aa0000"/><path class="fil0" d="m2120 767c-17 2-31 7-44 18-32 26-58 62-71 101-7 18-14 37 11 42 22 4 46 0 69-4 45-9 88-40 117-77 2-3 4-5 7-8-3-39-33-70-72-72h-17z" style="fill:#aa0000"/><path class="fil0" d="m2107 1212c-55 0-95 21-116 73-11 26 16 37 36 47 42 21 86 9 119-24 4-4 9-6 9-12 5-40-6-74-48-84z" style="fill:#aa0000"/><path class="fil0" d="m1941 1252c0-7-13-15-20-17-1-1-3-2-3-1-5 1-10 1-15 1-28 16-55 34-80 54-13 11-26 25-27 43 0 16 14 30 26 38 21 15 48 27 74 22 12-3 23-9 32-17 2-2 5-3 7-5 20-20 39-47 33-76-4-18-15-30-27-42z" style="fill:#aa0000"/><path class="fil0" d="m2190 1179c-3 13-7 22-1 35 2 2 3 3 3 6-3 12-5 24-3 37 6 45 53 51 91 50 33 0 71-2 99-22 22-15 37-38 46-63 3-9 5-18 4-27-1-33-38-46-65-50-17-3-34-1-51 1-43 3-83 16-123 33z" style="fill:#aa0000"/><path class="fil0" d="m1910 910c-47 6-81 29-116 60-14 12-33 28-36 48-4 20 17 35 33 42 30 14 64 24 96 13 38-13 69-47 85-83 18-44-27-68-62-80z" style="fill:#aa0000"/><path class="fil0" d="m1564 971c-10-63 22-92-33-117-19-9-44-19-65-18-15-17-33-31-52-44-1-38-9-75-33-105-17-22-114-102-129-40-66 36-103 101-85 175 10 38 35 78 55 111-24 97-19 180 71 240 79 52 175 107 202 180 22 60 53 149 116 138 58-10 134-78 95-140-15-23-34-78-32-105 7-84-1-149-57-200-18-17-43-14-53-75z" style="fill:#aa0000"/><path class="fil0" d="m724 475c44-65 14-163-58-194-18-8-37-15-56-7-30 13-57 49-64 81-19 87-12 177 13 262-17 30-18 57-1 87 33 57 77-5 100-36 39-53 62-119 65-185 1-3 1-5 1-8z" style="fill:#aa0000"/><path class="fil0" d="m1020 844c-65 21-129 61-202 75-8 1-22 35-31 36s-12-31-21-31c-58 0-79-96-113-141-20-27-55-4-82-28-35-29-29 136-39 186-15 80-40 144-37 228 4 121 44 238 138 320 92 79 174 13 260-41 82-51 150-110 200-190 5-7-17-33-13-41s36 3 40-5c53-105 109-437-100-368z" style="fill:#aa0000"/><path class="fil0" d="m1024 1429c-65 36-124 75-167 136-49 69 15 175 71 220 49 40 113 53 174 51 53-1 70-16 114-47 96-68 191-140 284-213 45-35-9-150-48-171-52-28-113-36-171-32-50 3-98 4-147 14-39 9-75 24-110 42z" style="fill:#aa0000"/></g><path class="fil1" d="m232.48 109.03h-0.17034l-1.4844 0.38936-0.65704 0.58404-0.77872 0.26768-1.2654 0.75438-0.65705 0.38936-0.41369 0.60837-1.1681 1.0707v0.34069l-0.58403 0.26768-0.85173 1.0707-0.41369 0.51103-0.41369 1.0707-0.82739 0.99773-0.17034 0.34069-0.58404 1.1681-0.43803 0.4867-0.80305 1.9468 2.4092-1.0221 1.8251-1.0707 0.58404-0.41369 2.4335-2.2632 1.2654-1.3141 1.0707-1.5088 0.34069-0.26768 0.26768-0.4867 0.55971-0.92473 0.26768-0.85172 0.41369-0.99773zm-2.3118-5.6944 1.1437-0.17034 1.6791 0.073 1.0951 0.41369 1.0464 0.75439 1.1194 0.75438 1.4844 1.9225 0.51104 0.92472 0.41369 1.5088 0.17035 1.0707-0.17035 0.77872 0.0973 0.14601-0.26768 1.2654-0.99773 1.4114h-0.14601l-0.43803 0.4867-0.34069 0.0973h-0.4867l-0.58404 0.65704-0.43803 0.60837-0.80305 0.4867-2.2875 1.8981-0.75438 0.53537-0.4867 0.65704-0.99773 0.75439-0.75438 0.65704-0.31636 0.17034h-0.26768l-1.0221 0.92473-0.73004 0.26768-1.6061 0.9004-0.31635 0.34069h-0.60838l-0.90039 0.58403h-0.41369v0.24335l1.5818 0.65704 5.1103 1.8738 3.1635 1.3871 1.6548 0.77872 1.6061 0.82739 2.4092 1.5088 2.6768 1.5818 0.51104 0.17034 0.41369 0.31636-0.073 0.17034-0.26768-0.073-1.1437-0.0973v0.34069l-0.60837-0.073v0.073l0.073 0.41369-0.4867 0.34069h-0.24335l-0.34068 0.26768-0.24335-0.17034-1.0221-0.34069-0.5597 0.073-1.0221-0.26768h-0.17034l-2.2632-0.75438-1.3141-0.21902-5.524-1.8494-1.0221-0.4867-0.46236-0.17034-5.3537-1.8494-1.5088-0.31636-0.34069 0.75438-0.31636 1.3141-0.43802 1.4114-0.65705 2.3605-0.26768 0.51103-0.31636 0.75439 0.0973 0.5597-0.26768 0.41369-0.17034 0.82739-0.34069 0.75438-0.58404 0.82739-0.31635 0.36502v0.26769l-0.26769 0.48669-0.41369 0.24335-0.4137 1.3384-0.26768 0.31636-0.0973 0.26768-0.38936 0.24335-0.34069 0.68138h-0.85172l-0.21901 0.4867-0.75438-0.17035-0.073 0.24335h-0.43803l-0.58404 0.26768-0.65704-0.17034-1.5088-1.4114-0.26769-0.0973-0.38935-0.75439-0.26769-0.14601 0.0973-1.0221-0.26768-0.4137 0.073-0.48669 0.36503-2.2875v-1.5574l0.073-0.60837 0.65704-3.0905 1.6061-5.3293 0.82738-3.9423 1.2411-4.4046 0.68138-1.7521 0.65704-1.2898v-0.31635l0.4137-0.4867-0.073-0.43803 0.38936-1.5818 0.63271-1.4114v-0.26769l0.38936-0.65704 0.58404-0.58404 0.75438-0.073 0.60837-0.17035 0.73005 0.073 0.85172 0.4867 0.82739 0.36502h0.68137l0.24335-0.19468 0.58404-0.34069 2.5065-2.2388 1.3384-0.90039 0.82738-0.70571 1.8251-1.0464 2.1901-0.92472z" style="clip-rule:evenodd;fill:#aa0000;image-rendering:optimizeQuality;shape-rendering:geometricPrecision;stroke-width:.024335"/><path class="fil1" d="m258.57 124.19h-0.19468l-1.3141 0.21901-1.8008 0.75438-2.2875 1.1194-2.3118 1.8494-1.1681 1.1437-1.5818 1.9711 1.1681-0.0243 2.0685-0.75439 1.9711-0.99773 1.5574-1.0221 1.2411-1.1437 1.1194-1.0951zm-1.1681-2.9202 1.8251-0.58404 1.8251 0.19468 0.46236 0.46236 0.19468 0.65705-0.19468 0.21901 0.29202 0.85172-0.12167 1.1924-0.36503 0.75438-0.0973 0.34069-0.0973 0.29202-0.77871 1.0464-0.073 0.36503-0.38936 0.4867-0.65704 0.58403-0.38936 0.31636-0.92473 0.92472-1.1681 1.1194-1.0221 0.87606-0.0973 0.29202-0.58403 0.29201h-0.19468l-0.58404 0.46237-0.5597 0.26768-1.6061 1.1681-0.77872 0.29202-0.17034 0.26768-2.4822 0.94906-1.1437 0.0973-0.29202 0.85172 0.0973 0.29202 0.29202 0.4867 1.3384 0.73005 2.0685 0.58404 2.2875 0.29201 0.19468 0.21902 3.8206 0.14601 2.8472-0.14601 2.5795-0.41369 1.3141-0.29202h0.21901v0.19468l-1.4601 0.87605-1.3141 0.65704-0.073 0.17035-0.58404 0.21901-0.75438 0.073-0.21902 0.29202-1.2411 0.4867h-0.43803l-0.21901 0.29201-0.36502 0.0973-0.4867-0.0973-0.0973 0.0973h-0.58404l-0.26768 0.29202-1.2411 0.17035-0.77872 0.0973-1.1194 0.19468-0.68137-0.0973-0.0973 0.0973h-1.0221l-0.29202 0.19468-0.38936-0.0973h-0.5597l-0.21901-0.0973h-0.75439l-0.17034-0.19468h-0.38936l-0.68138-0.19468-0.17034-0.073v-0.12167l-0.0973-0.0973h-0.68138l-0.19468-0.073-0.36502 0.073-0.38936-0.29202-0.75438-0.53537-0.87606-0.87606-0.73005-1.0221-0.77871-1.7521-0.0973-0.65704 0.0973-0.29202-0.26769-1.0221v-0.21902l-0.14601-0.26768 0.14601-0.38936v-0.75438l0.0973-0.87606 1.1194-1.6061 1.3384-1.7034 0.97339-0.87605 0.82739-0.94906 0.68138-0.4867 3.5042-2.5552 2.5795-1.6304z" style="clip-rule:evenodd;fill:#aa0000;image-rendering:optimizeQuality;shape-rendering:geometricPrecision;stroke-width:.024335"/><path class="fil1" d="m279.52 124.92-0.0973-0.073-1.2411 0.17034-1.7034 1.2411-1.2654 1.1437-0.55971 0.75438-1.4114 2.9445-0.29202 0.87606v1.7278l0.29202 1.1194 0.17034 0.38936h0.4867l0.65704-0.38936 0.9734-1.3141 0.73005-1.1681 1.7521-3.5286zm7.4221-23.313 0.75438-0.29202 0.87606 0.29202 0.29202-0.21901 1.3141 0.51103 0.38935-0.21901 0.94907 0.68137 0.36502 0.65705-0.17035 1.6061-0.41369 1.1681-0.073 1.0221-0.17035 0.77872-1.0707 3.3339-0.46237 1.6061-1.1681 3.0662-0.36503 1.0464-0.29202 0.75438-0.36502 0.68138 0.073 0.38935-0.29202 0.36503-0.53537 0.58404v0.82738l-0.58404 1.1437-0.0973 0.68138-0.5597 0.4867 0.0973 0.53537v0.21901l-0.51103 1.4114-0.36503 0.58403-0.36502 1.8981v0.36502l-0.31636 0.58404 0.21902 0.4867-0.29202 0.38936-0.12168 1.6061-0.073 0.19468v1.6304l-0.0973 2.0685v1.0707l0.17034 1.4114 0.19468 0.75438 0.21902 0.21901 0.29202 1.3141 0.46236 1.2411h0.19468l0.29202 0.77871 0.0973 0.65705 0.65704 0.68137 0.19468 0.0973 0.5597 0.073 0.55971-0.073 0.77871-0.21901 0.0973 0.41369-0.19468 0.26769v0.46236l-1.0464 0.9734-0.94906 0.5597h-0.9734l-0.65704-0.5597-2.2875-3.8206-1.2411-3.5286-0.26768-0.65704-0.29202 0.17035v0.19468l-0.29202 0.38935-0.46237 0.65705-0.87605 0.87605-0.46237 0.4867-1.1437 0.65704-2.1901 0.65705-1.7034 0.26768-1.0707-0.073-1.3384-0.55971-1.3141-0.77871-1.1681-0.94907-0.82739-1.3384-0.87605-2.0928-0.19468-1.0464 0.12167-1.6304 0.65705-2.4822 1.2411-2.2632 1.5331-1.9955 0.92472-0.94906 2.3848-2.5795 3.1635-2.2875 0.82739-0.31636h1.4358l2.1171 0.70572 1.5818-5.0373 2.0198-6.3027 1.3384-3.3339 0.29202-1.0707-0.0973-1.1194 0.29202-0.94906h0.29202l0.26768-0.65704z" style="clip-rule:evenodd;fill:#aa0000;image-rendering:optimizeQuality;shape-rendering:geometricPrecision;stroke-width:.024335"/><polygon class="fil1" transform="matrix(.024335 0 0 .024335 125.41 96.594)" points="8370 973 8363 1001 8363 1038 8356 1076 8345 1100 8345 1127 8336 1142 8340 1169 8329 1196 8336 1227 8325 1238 8322 1306 8309 1365 8309 1389 8311 1403 8302 1426 8298 1481 8287 1544 8275 1595 8275 1602 8280 1615 8275 1626 8277 1664 8271 1702 8277 1787 8277 1829 8271 1836 8264 1881 8249 1911 8243 1921 8264 1931 8257 1962 8264 1994 8264 2010 8253 2025 8245 2053 8249 2072 8257 2096 8257 2128 8257 2137 8240 2159 8249 2161 8249 2168 8236 2168 8228 2187 8233 2244 8222 2261 8224 2290 8207 2309 8200 2278 8196 2274 8179 2204 8171 2186 8171 2172 8160 2114 8150 2065 8153 2052 8147 2028 8140 1980 8133 1969 8133 1956 8121 1871 8106 1739 8082 1475 8082 1450 8075 1372 8075 1287 8064 1249 8068 1193 8068 1127 8068 1080 8068 1032 8064 1011 8064 1001 8068 953 8072 908 8072 846 8078 823 8078 781 8085 757 8082 716 8085 654 8088 607 8075 616 8064 647 8054 674 8048 688 8048 712 8040 727 8030 730 8013 770 8006 819 7995 832 7983 832 7975 857 7975 888 7961 895 7961 904 7941 963 7921 1032 7906 1046 7893 1091 7874 1145 7833 1265 7814 1314 7765 1381 7716 1457 7680 1485 7646 1512 7635 1506 7611 1515 7577 1515 7522 1509 7450 1488 7412 1464 7364 1419 7337 1385 7298 1278 7279 1107 7277 1004 7259 1042 7246 1078 7239 1116 7233 1132 7223 1175 7217 1243 7197 1356 7189 1392 7172 1450 7147 1526 7147 1544 7134 1581 7113 1629 7107 1644 7100 1688 7079 1742 7083 1760 7076 1791 7076 1804 7062 1825 7055 1873 7045 1887 7045 1925 7042 1965 7027 1986 7031 1999 7024 2014 7007 2034 6993 2037 6986 2055 6976 2063 6949 2063 6921 2072 6915 2059 6900 2065 6877 2048 6853 2021 6828 1986 6826 1959 6835 1925 6835 1842 6853 1722 6853 1664 6855 1615 6859 1584 6866 1372 6880 1156 6900 1019 6915 946 6949 774 6973 692 6983 644 7031 500 7049 469 7049 462 7083 424 7096 413 7110 377 7130 352 7138 331 7185 317 7227 315 7250 321 7296 328 7357 345 7381 359 7419 373 7426 382 7484 420 7518 469 7546 540 7556 585 7567 616 7567 778 7564 897 7564 1035 7564 1060 7569 1107 7577 1166 7601 1127 7611 1121 7662 1004 7684 953 7697 935 7711 901 7735 850 7831 647 7855 607 7890 524 7921 462 7934 438 7944 411 7961 377 7992 321 8021 261 8068 184 8085 156 8095 132 8117 105 8130 81 8147 56 8178 36 8202 29 8233 12 8264 5 8315 12 8380 56 8428 123 8442 143 8449 154 8460 184 8476 228 8483 286 8483 335 8487 404 8474 503 8474 547 8466 558 8463 593 8456 640 8432 757 8409 853 8393 909" style="clip-rule:evenodd;fill:#aa0000;image-rendering:optimizeQuality;shape-rendering:geometricPrecision"/><polygon class="fil1" transform="matrix(.024335 0 0 .024335 125.41 96.594)" points="9136 965 9165 965 9218 978 9234 1004 9239 1038 9239 1043 9234 1081 9237 1107 9232 1138 9219 1196 9206 1250 9189 1298 9178 1343 9168 1380 9158 1423 9139 1530 9130 1622 9136 1722 9152 1806 9130 1818 9110 1811 9106 1826 9091 1823 9081 1824 9069 1813 9055 1779 9046 1740 9034 1697 9028 1602 8985 1689 8946 1736 8861 1818 8792 1856 8739 1865 8700 1852 8658 1831 8610 1774 8576 1680 8567 1620 8576 1486 8602 1332 8662 1142 8714 1012 8756 961 8779 948 8782 948 8816 957 8838 1e3 8838 1056 8803 1194 8803 1223 8782 1319 8752 1500 8752 1620 8765 1637 8788 1618 8814 1568 8947 1253 8973 1189 9042 1034 9048 1014 9060 996 9080 973 9105 973" style="clip-rule:evenodd;fill:#aa0000;image-rendering:optimizeQuality;shape-rendering:geometricPrecision"/><path class="fil1" d="m366.27 124.92-0.12168-0.073-1.2411 0.17034-1.7034 1.2411-1.2411 1.1437-0.58404 0.75438-1.4114 2.9445-0.29202 0.87606v1.7278l0.29202 1.1194 0.17034 0.38936h0.4867l0.68138-0.38936 0.94906-1.3141 0.75438-1.1681 1.7278-3.5286zm7.4222-23.313 0.73004-0.29202 0.87606 0.29202 0.29202-0.21901 1.3141 0.51103 0.38936-0.21901 0.94906 0.68137 0.38936 0.65705-0.19468 1.6061-0.38935 1.1681-0.0973 1.0221-0.17035 0.77872-1.0707 3.3339-0.46237 1.6061-1.1437 3.0662-0.38936 1.0464-0.29202 0.75438-0.36502 0.68138 0.0973 0.38935-0.31635 0.36503-0.53537 0.58404v0.82738l-0.58404 1.1437-0.073 0.68138-0.58404 0.4867 0.0973 0.53537v0.21901l-0.4867 1.4114-0.38936 0.58403-0.36502 1.8981v0.36502l-0.29202 0.58404 0.19468 0.4867-0.29202 0.38936-0.0973 1.6061-0.0973 0.19468v1.6304l-0.0973 2.0685v1.0707l0.19468 1.4114 0.19468 0.75438 0.19468 0.21901 0.29202 1.3141 0.46236 1.2411h0.19468l0.29202 0.77871 0.0973 0.65705 0.65704 0.68137 0.19468 0.0973 0.5597 0.073 0.58404-0.073 0.77872-0.21901 0.073 0.41369-0.19468 0.26769v0.46236l-1.0464 0.9734-0.94906 0.5597h-0.94906l-0.65704-0.5597-2.2875-3.8206-1.2411-3.5286-0.29201-0.65704-0.29202 0.17035v0.19468l-0.29202 0.38935-0.46237 0.65705-0.85172 0.87605-0.46236 0.4867-1.1681 0.65704-2.1901 0.65705-1.7034 0.26768-1.0707-0.073-1.3384-0.55971-1.3141-0.77871-1.1681-0.94907-0.82739-1.3384-0.87605-2.0928-0.19468-1.0464 0.12167-1.6304 0.65704-2.4822 1.2411-2.2632 1.5331-1.9955 0.92473-0.94906 2.4092-2.5795 3.1392-2.2875 0.82739-0.31636h1.4601l2.0928 0.70572 1.6061-5.0373 2.0198-6.3027 1.3141-3.3339 0.29202-1.0707-0.0973-1.1194 0.29202-0.94906h0.29202l0.26768-0.65704z" style="clip-rule:evenodd;fill:#aa0000;image-rendering:optimizeQuality;shape-rendering:geometricPrecision;stroke-width:.024335"/><path class="fil1" d="m211.23 151.2-0.21902-0.0243h-0.70571v0.51104l-0.17034 0.60837-0.073 0.0973 0.0973 0.29202-0.0487 0.92472 0.0243 0.24335-0.073 0.12168 0.0487 0.5597-0.073 0.80305-0.073 0.0973v0.38936l-0.073 0.38936-0.0973 0.4867 0.0243 0.43803-0.073 0.36502-0.14601 0.51103-0.0487 0.0973-0.0243 0.26769v0.53536l-0.0973 0.12168 0.0973 0.24335-0.12167 0.21901 0.073 0.26769 0.073 0.24335 0.46236-0.24335 0.31636-0.31636 0.19468-0.12167 0.51103-0.36503 0.4867-0.36502 0.43802-0.34069 0.36503-0.34069 0.17034-0.24335 0.21902-0.24335 0.24335-0.19467 0.19468-0.21902 0.36502-0.60837 0.17034-0.24335 0.19468-0.60837 0.0243-0.55971 0.0243-0.43802-0.0973-0.92473-0.21901-0.75438-0.24335-0.55971-0.19468-0.21901-0.41369-0.4867-0.4867-0.24335-0.43803-0.14601zm-1.7278-3.0419-0.0243-0.24334h0.0973l0.24335 0.21901 0.38936 0.0243h0.5597l0.9734 0.12168 0.34069 0.12167 0.14601 0.0243 0.5597 0.21901 0.46237 0.19468 0.12167 0.14601 0.36502 0.19468 0.34069 0.24335 0.19468 0.14601 0.0973 0.14601h0.073l0.26768 0.34069 0.0487 0.14601 0.19468 0.0973 0.073 0.0973 0.26769 0.48669 0.26768 0.38936 0.073 0.34069 0.14601 0.34069 0.073 0.43803 0.14601 0.0973 0.0973 0.46236 0.0243 0.68138-0.0973 0.34069 0.0973 0.0243 0.073 0.24335-0.0487 0.19468-0.12168 0.12168-0.0243 0.26768v0.29202l-0.14601 0.43803-0.0973 0.0973 0.0243 0.26768-0.19468 0.26768-0.14601 0.36503-0.14601 0.53537-0.29202 0.60837-0.51103 0.58404-0.55971 0.60837-0.43803 0.34069-0.31635 0.38936-0.17034 0.073-0.0487 0.12168-0.51104 0.26768-0.0243 0.0973-0.26769 0.24335-0.26768 0.17034-0.0487 0.0243v0.073h-0.24335l-0.58404 0.43803h-0.14601l-0.17034 0.31636-0.31635-0.0243-0.19468 0.14601-0.24335 0.0243v0.073l-0.12168 0.073-0.0973-0.0243-0.53536 0.14601 0.0243-0.19468-0.29202 0.073v0.17035l-0.12167 0.0487-0.12168 0.17034h-0.0973l-0.14601 0.24335-0.17034-0.0243 0.0243 0.24335-0.12167 0.17034-0.14601 0.0243-0.31635-0.0973-0.19468 0.19467h-0.12168l-0.0973-0.0973-0.14601 0.073v0.0243l-0.073 0.073-0.29202 0.0973-0.073-0.0487-0.0973 0.0973-0.073-0.17035-0.0243-0.24334 0.0973-0.0487v-0.17035l0.29202-0.29202 0.38936-0.46236-0.19468-1.1924v-0.31636l-0.0243-0.38935 0.0243-0.29202-0.0243-0.29202 0.0243-0.63271 0.0487-0.99773 0.0487-0.90039 0.0487-0.4867-0.0487-0.38936 0.0973-0.073 0.073-0.29202-0.0243-0.21902 0.0487-0.14601v-0.5597l0.073-0.29202 0.0973-0.38936 0.0487-0.17034v-0.26769h0.073l0.0487-0.17034 0.073-0.46236 0.073-0.46237 0.19468-0.48669v-0.34069l0.12167-0.4867 0.14601-0.34069-0.073-0.12167v-0.14601l-0.24335-0.21902-0.0973-0.34069v-0.12167l0.0487-0.0973 0.0243-0.29202 0.12168-0.24335 0.0487-0.073 0.12167-0.12168 0.24335-0.0973 0.26769-0.0487 0.19468-0.0973 0.21901-0.0973 0.0973-0.21901 0.12167-0.17035z" style="clip-rule:evenodd;fill:#aa0000;image-rendering:optimizeQuality;shape-rendering:geometricPrecision;stroke-width:.024335"/><path class="fil1" d="m222.31 156.31h-0.073l-0.4867 0.073-0.68138 0.29202-0.87606 0.43803-0.85172 0.68138-0.43803 0.43803-0.60837 0.73004h0.43803l0.77872-0.29201 0.75438-0.36503 0.58404-0.38936 0.46236-0.43803 0.41369-0.41369zm-0.43803-1.0951 0.68138-0.21902 0.70571 0.073 0.17035 0.17034 0.073 0.24335-0.073 0.073 0.0973 0.34069-0.0487 0.43802-0.14601 0.29202-0.0243 0.12168-0.0243 0.12167-0.29202 0.38936-0.0487 0.14601-0.12168 0.17034-0.26768 0.21902-0.14601 0.12167-0.77872 0.77872-0.38935 0.31635-0.0487 0.12168-0.21902 0.0973h-0.073l-0.21902 0.17034-0.19468 0.12168-0.60837 0.43803-0.29202 0.0973-0.073 0.0973-0.92473 0.36503-0.43803 0.0487-0.12167 0.31635 0.0487 0.0973 0.12167 0.19468 0.4867 0.26769 0.77872 0.21901 0.87605 0.12167 0.073 0.073 1.4358 0.0487 1.0707-0.0487 0.9734-0.14601 0.4867-0.12168h0.0973v0.073l-0.5597 0.34069-0.4867 0.24335-0.0487 0.073-0.21902 0.073-0.26768 0.0243-0.073 0.12168-0.48669 0.17034h-0.17035l-0.073 0.12168-0.14601 0.0243-0.17035-0.0243-0.0487 0.0243h-0.21901l-0.0973 0.0973-0.46236 0.073-0.29202 0.0487-0.4137 0.073-0.26768-0.0487-0.0243 0.0487h-0.38936l-0.12168 0.073-0.14601-0.0487h-0.21901l-0.073-0.0243h-0.26768l-0.073-0.073h-0.14601l-0.26769-0.073-0.0487-0.0487v-0.0243l-0.0487-0.0487h-0.24335l-0.073-0.0243-0.14601 0.0243-0.14601-0.0973-0.29202-0.21902-0.31635-0.31635-0.29202-0.38936-0.29202-0.65704-0.0243-0.24335 0.0243-0.12168-0.0973-0.38936v-0.073l-0.0487-0.0973 0.0487-0.14601v-0.29202l0.0487-0.31635 0.41369-0.60838 0.51104-0.65704 0.36502-0.31635 0.31635-0.36503 0.24335-0.17034 1.3141-0.9734 0.97339-0.60837z" style="clip-rule:evenodd;fill:#aa0000;image-rendering:optimizeQuality;shape-rendering:geometricPrecision;stroke-width:.024335"/><polygon class="fil1" transform="matrix(.024335 0 0 .024335 125.41 96.594)" points="4357 2621 4360 2633 4360 2634 4357 2644 4357 2649 4350 2661 4340 2669 4324 2680 4290 2686 4280 2687 4253 2692 4246 2692 4231 2695 4171 2702 4110 2705 4107 2701 4100 2701 4097 2697 4091 2699 4069 2699 4060 2701 4055 2696 4058 2684 4072 2676 4092 2665 4144 2651 4196 2642 4273 2631 4287 2627 4289 2626 4277 2609 4263 2596 4259 2592 4253 2584 4235 2569 4226 2563 4226 2562 4212 2549 4207 2543 4191 2509 4188 2474 4196 2447 4204 2432 4232 2406 4260 2386 4289 2372 4334 2354 4344 2351 4365 2351 4385 2357 4387 2358 4387 2361 4394 2378 4394 2390 4390 2398 4371 2411 4357 2411 4328 2431 4297 2454 4269 2483 4266 2494 4266 2499 4269 2508 4318 2556 4341 2586 4356 2615 4356 2618" style="clip-rule:evenodd;fill:#aa0000;image-rendering:optimizeQuality;shape-rendering:geometricPrecision"/><path class="fil1" d="m236.25 152.9 0.146-0.0487 0.24335 0.14601 0.24335 0.073 0.073 0.31635 0.073 0.0243-0.073 0.0973v0.4137l-0.0973 0.46236-0.38936 0.26769-0.41369 0.073-0.31636-0.073-0.41369-0.58404-0.0487-0.29202v-0.26769l0.073-0.29201 0.17035-0.0487v-0.0973l0.19468-0.14601h0.0973l0.073-0.073zm-0.9734 3.6016 0.34069-0.12168 0.19468 0.0487 0.12167-0.0487h0.073l0.26768 0.24335 0.14601 0.073 0.26768 0.51103 0.0243 0.34069v0.36502l-0.31636 0.68138-0.51103 1.6548-0.0973 1.0464-0.0487 0.34068 0.21902 0.073 0.65704-0.0243 0.82739-0.21901-0.17035 0.29202v0.0973l-0.19468 0.36502-0.14601 0.14601 0.0243 0.0973-0.24335 0.17035h-0.073l-0.073 0.14601-0.29202 0.12167-0.0487 0.073-0.65704 0.38936-0.24335 0.19468-0.4867 0.0487-0.0487 0.0487-0.12167-0.073-0.43803-0.19468-0.53537-0.38936-0.31635-0.38936-0.14601-0.36502-0.14601-0.77872v-0.9734l0.14601-0.58403 0.43802-1.0707 0.63271-1.0951 0.58404-0.75438z" style="clip-rule:evenodd;fill:#aa0000;image-rendering:optimizeQuality;shape-rendering:geometricPrecision;stroke-width:.024335"/><path class="fil1" d="m243.26 156 0.21901-0.43803-0.41369 0.19468-0.85172 0.60837-0.073 0.24335-0.38936 0.43803-0.17034 0.36502-0.0973 0.31635 0.0973 0.12168 0.21901-0.0487 0.29202-0.073 0.17035-0.19468 0.34069-0.34068 0.41369-0.58404zm0.94906-1.4358 0.21901-0.14601 0.51104 0.0487 0.17034 0.14601-0.0243 0.17034 0.14601 0.31635-0.14601 0.53537-0.073 0.24335 0.0243 0.0487-0.17035 0.43803 0.0487 0.34069-0.21901 0.82738-0.26769 1.4844-0.0973 0.21902v0.24335l-0.14601 0.51103-0.0973 0.46236-0.073 0.51104-0.12167 0.19468-0.073 0.43802-0.0243 0.0243-0.14601 0.0487-0.0487 0.24335-0.12168 0.36502v0.21902l-0.19468 0.75438-0.0243 0.36502-0.29202 0.21902 0.0243 0.17034-0.0487 0.0243v0.0487l-0.12168 0.19467-0.17034 0.19468-0.12168 0.0243-0.14601 0.073-0.19468 0.26769-0.19468 0.14601-0.24335 0.073-0.146 0.0487-0.31636 0.0487-0.46236 0.0487-0.99773-0.34069-0.51104-0.31635-0.41369-0.36502-0.31635-0.4137-0.34069-0.58404-0.21902-0.53536-0.14601-1.0221 0.073-0.65704 0.0973-0.29202v-0.36503l0.073-0.0243 0.073 0.0973 0.0973 0.0243 0.12167 0.14601 0.0243-0.0487h0.0487l0.0973 0.4137v0.073l0.36502 0.5597 0.073 0.0487 0.073 0.21902h0.073l0.14601 0.24335h0.14601l0.24335 0.53537 0.24335 0.24335 0.38936 0.31635 0.34069 0.17034 0.24335 0.0243 0.53537 0.21901 0.31635-0.0243 0.0973-1.1194 0.073-0.4867 0.0487-0.6327 0.12168-0.80306 0.0487-0.90039 0.12167-0.85172-0.0243-0.0243-0.73005 0.29201-0.46236-0.0487-0.63271-0.0973-0.12167-0.0243-0.21902-0.19468-0.21901-0.31635-0.0243-0.24335v-0.58404l0.14601-0.53537 0.51103-0.68138 0.4137-0.58403 0.31635-0.29202 0.12168-0.0487 0.53536-0.43803 0.24335-0.14601 0.14601-0.0243 0.21902-0.0973 0.38936-0.17035 0.51103 0.073 0.26768 0.14601 0.12168 0.146 0.0243 0.0973z" style="clip-rule:evenodd;fill:#aa0000;image-rendering:optimizeQuality;shape-rendering:geometricPrecision;stroke-width:.024335"/><polygon class="fil1" transform="matrix(.024335 0 0 .024335 125.41 96.594)" points="5149 2587 5156 2569 5155 2566 5155 2562 5158 2559 5158 2533 5162 2515 5163 2501 5166 2484 5166 2476 5161 2465 5153 2458 5137 2456 5117 2461 5111 2476 5106 2491 5098 2501 5091 2527 5085 2536 5080 2553 5067 2583 5052 2618 5046 2631 5045 2639 5036 2659 5036 2665 5031 2672 5021 2700 5018 2702 5012 2713 5004 2716 5004 2720 4995 2718 4977 2718 4969 2708 4966 2705 4960 2702 4953 2693 4950 2689 4944 2688 4942 2676 4947 2667 4954 2630 4956 2625 4969 2581 4972 2571 4987 2521 4999 2465 5019 2411 5029 2396 5045 2389 5065 2390 5066 2391 5076 2388 5079 2390 5091 2403 5095 2414 5120 2395 5130 2388 5150 2382 5187 2374 5232 2391 5234 2392 5246 2403 5248 2406 5259 2421 5263 2449 5261 2479 5259 2490 5252 2507 5243 2537 5237 2559 5233 2584 5229 2591 5226 2597 5229 2600 5230 2609 5230 2620 5225 2634 5226 2675 5233 2695 5246 2732 5253 2745 5258 2754 5250 2756 5244 2761 5239 2755 5230 2755 5230 2757 5226 2759 5218 2756 5206 2753 5173 2715 5156 2661 5154 2653 5155 2649 5150 2637 5154 2590" style="clip-rule:evenodd;fill:#aa0000;image-rendering:optimizeQuality;shape-rendering:geometricPrecision"/><polygon class="fil1" transform="matrix(.024335 0 0 .024335 125.41 96.594)" points="6142 2188 6152 2183 6155 2183 6163 2181 6175 2189 6191 2184 6210 2185 6239 2184 6285 2179 6335 2176 6384 2179 6420 2173 6466 2178 6508 2179 6562 2192 6584 2208 6576 2213 6561 2215 6559 2218 6549 2222 6537 2224 6534 2232 6521 2232 6513 2238 6491 2236 6488 2239 6487 2245 6485 2245 6480 2241 6473 2241 6470 2241 6469 2242 6468 2246 6458 2239 6445 2244 6440 2249 6418 2252 6408 2252 6369 2256 6357 2260 6355 2262 6349 2277 6335 2319 6311 2391 6294 2448 6282 2492 6275 2526 6268 2544 6266 2563 6259 2580 6257 2590 6255 2599 6252 2608 6250 2621 6247 2633 6243 2647 6237 2667 6235 2687 6233 2701 6232 2717 6233 2723 6229 2738 6224 2747 6220 2773 6215 2794 6211 2796 6212 2802 6210 2804 6201 2796 6192 2743 6193 2736 6189 2728 6186 2701 6187 2694 6188 2684 6188 2668 6184 2662 6185 2606 6186 2590 6185 2585 6189 2571 6187 2566 6190 2534 6191 2530 6194 2489 6201 2465 6206 2430 6208 2426 6210 2417 6212 2397 6217 2383 6222 2360 6226 2342 6232 2317 6233 2313 6240 2281 6241 2267 6245 2260 6226 2261 6221 2263 6197 2265 6171 2264 6145 2262 6107 2261 6070 2248 6065 2248 6044 2244 6036 2232 6036 2226 6045 2218 6046 2216 6060 2211 6070 2214 6080 2210 6085 2201 6119 2194 6134 2192" style="clip-rule:evenodd;fill:#aa0000;image-rendering:optimizeQuality;shape-rendering:geometricPrecision"/><path class="fil1" d="m286.84 156.31h-0.073l-0.4867 0.073-0.68138 0.29202-0.87605 0.43803-0.85173 0.68138-0.43802 0.43803-0.60838 0.73004h0.43803l0.77872-0.29201 0.75438-0.36503 0.58404-0.38936 0.46236-0.43803 0.4137-0.41369zm-0.43803-1.0951 0.68138-0.21902 0.68138 0.073 0.17034 0.17034 0.0973 0.24335-0.0973 0.073 0.12168 0.34069-0.0487 0.43802-0.14601 0.29202-0.0243 0.12168-0.0243 0.12167-0.29202 0.38936-0.0487 0.14601-0.14601 0.17034-0.24335 0.21902-0.14601 0.12167-0.77871 0.77872-0.38936 0.31635-0.0487 0.12168-0.21902 0.0973h-0.073l-0.21902 0.17034-0.19468 0.12168-0.60837 0.43803-0.29202 0.0973-0.073 0.0973-0.92473 0.36503-0.43803 0.0487-0.12167 0.31635 0.0487 0.0973 0.12167 0.19468 0.4867 0.26769 0.77872 0.21901 0.87606 0.12167 0.073 0.073 1.4358 0.0487 1.0707-0.0487 0.97339-0.14601 0.4867-0.12168h0.073v0.073l-0.53537 0.34069-0.51104 0.24335-0.0243 0.073-0.21902 0.073-0.26768 0.0243-0.0973 0.12168-0.46236 0.17034h-0.17035l-0.073 0.12168-0.14601 0.0243-0.17035-0.0243-0.0487 0.0243h-0.21902l-0.0973 0.0973-0.46236 0.073-0.29202 0.0487-0.41369 0.073-0.26769-0.0487-0.0243 0.0487h-0.38936l-0.12168 0.073-0.14601-0.0487h-0.21901l-0.073-0.0243h-0.26769l-0.073-0.073h-0.14601l-0.26769-0.073-0.0487-0.0487v-0.0243l-0.0487-0.0487h-0.24335l-0.0973-0.0243-0.12167 0.0243-0.14601-0.0973-0.29202-0.21902-0.31635-0.31635-0.29202-0.38936-0.29202-0.65704-0.0243-0.24335 0.0243-0.12168-0.0973-0.38936v-0.073l-0.0487-0.0973 0.0487-0.14601v-0.29202l0.0243-0.31635 0.43802-0.60838 0.4867-0.65704 0.38936-0.31635 0.31635-0.36503 0.24335-0.17034 1.3141-0.9734 0.97339-0.60837z" style="clip-rule:evenodd;fill:#aa0000;image-rendering:optimizeQuality;shape-rendering:geometricPrecision;stroke-width:.024335"/><polygon class="fil1" transform="matrix(.024335 0 0 .024335 125.41 96.594)" points="6840 2626 6864 2635 6882 2638 6933 2638 6995 2630 7065 2610 7068 2608 7068 2610 7059 2619 7049 2630 7045 2635 7042 2639 7023 2654 7017 2655 7011 2663 7005 2666 7004 2669 6973 2682 6973 2684 6962 2691 6954 2689 6946 2697 6940 2697 6939 2700 6899 2713 6897 2712 6878 2716 6875 2719 6870 2723 6846 2720 6812 2714 6806 2712 6782 2695 6760 2666 6759 2661 6750 2639 6747 2613 6753 2600 6754 2589 6757 2589 6766 2570 6781 2546 6809 2508 6870 2442 6897 2418 6920 2404 6942 2392 6946 2392 6971 2392 6983 2399 6987 2404 6992 2412 6992 2414 6996 2424 6998 2426 6998 2434 6989 2449 6970 2460 6967 2458 6958 2461 6940 2475 6914 2505 6900 2523 6887 2541 6871 2567 6847 2600 6840 2614" style="clip-rule:evenodd;fill:#aa0000;image-rendering:optimizeQuality;shape-rendering:geometricPrecision"/><polygon class="fil1" transform="matrix(.024335 0 0 .024335 125.41 96.594)" points="7368 2371 7383 2391 7393 2402 7396 2416 7396 2433 7394 2445 7391 2458 7383 2473 7376 2499 7350 2586 7345 2598 7336 2623 7330 2632 7330 2636 7324 2651 7321 2659 7321 2662 7317 2678 7311 2687 7305 2694 7301 2705 7297 2710 7290 2712 7282 2715 7279 2712 7278 2696 7279 2655 7281 2637 7315 2479 7318 2439 7316 2436 7311 2436 7300 2437 7271 2454 7263 2464 7256 2470 7243 2487 7221 2525 7193 2580 7181 2605 7138 2704 7128 2719 7123 2721 7120 2725 7101 2727 7097 2723 7088 2714 7082 2694 7080 2682 7088 2656 7113 2582 7162 2412 7190 2327 7222 2252 7253 2194 7277 2163 7290 2156 7311 2157 7316 2169 7320 2180 7315 2209 7315 2214 7312 2225 7293 2269 7271 2330 7268 2334 7265 2348 7259 2357 7259 2359 7253 2373 7255 2374 7287 2361 7306 2357 7321 2357 7340 2361 7356 2367" style="clip-rule:evenodd;fill:#aa0000;image-rendering:optimizeQuality;shape-rendering:geometricPrecision"/><polygon class="fil1" transform="matrix(.024335 0 0 .024335 125.41 96.594)" points="7821 2352 7806 2364 7801 2369 7788 2379 7780 2390 7768 2394 7755 2406 7744 2429 7739 2449 7740 2469 7744 2479 7774 2501 7781 2505 7804 2518 7817 2527 7828 2533 7837 2537 7856 2549 7859 2554 7882 2566 7897 2577 7919 2592 7941 2615 7949 2622 7959 2632 7971 2643 7981 2656 7992 2673 7997 2690 7999 2706 7997 2719 7997 2729 7996 2737 7988 2754 7965 2773 7942 2783 7932 2788 7921 2790 7903 2795 7877 2799 7849 2799 7814 2797 7795 2795 7779 2793 7770 2793 7746 2788 7735 2788 7730 2786 7725 2786 7723 2784 7720 2786 7716 2781 7713 2783 7713 2787 7712 2790 7708 2787 7704 2787 7700 2780 7694 2777 7691 2779 7685 2778 7685 2779 7680 2780 7678 2779 7673 2780 7668 2777 7665 2777 7661 2774 7659 2775 7659 2774 7660 2773 7671 2770 7689 2767 7702 2767 7712 2765 7727 2764 7746 2758 7748 2757 7777 2754 7787 2753 7800 2752 7820 2752 7826 2749 7846 2748 7852 2748 7858 2744 7872 2743 7881 2743 7885 2740 7895 2739 7902 2739 7908 2738 7914 2739 7921 2736 7930 2727 7940 2727 7946 2723 7954 2717 7957 2708 7958 2700 7954 2695 7955 2687 7952 2681 7949 2676 7944 2671 7940 2667 7932 2660 7922 2653 7908 2642 7894 2637 7875 2624 7862 2617 7853 2614 7835 2602 7826 2599 7819 2593 7814 2593 7799 2588 7793 2584 7771 2578 7744 2570 7723 2566 7720 2563 7704 2558 7690 2550 7674 2535 7661 2525 7643 2508 7633 2492 7629 2479 7625 2465 7625 2427 7632 2420 7637 2411 7637 2400 7646 2382 7655 2372 7664 2359 7687 2335 7702 2323 7722 2308 7739 2293 7755 2280 7794 2253 7813 2241 7835 2224 7865 2206 7872 2204 7881 2195 7911 2175 7942 2157 7951 2146 7956 2144 7964 2136 7973 2133 7982 2125 7989 2125 7998 2121 8009 2121 8028 2124 8054 2139 8060 2157 8065 2171 8068 2180 8071 2192 8066 2204 8058 2214 8046 2222 8031 2229 8017 2237 8004 2245 7983 2257 7964 2265 7947 2276 7934 2284 7920 2288 7912 2294 7902 2299 7892 2301 7883 2306 7877 2309 7870 2315 7857 2321 7855 2326 7840 2336" style="clip-rule:evenodd;fill:#aa0000;image-rendering:optimizeQuality;shape-rendering:geometricPrecision"/><polygon class="fil1" transform="matrix(.024335 0 0 .024335 125.41 96.594)" points="8285 2391 8296 2391 8316 2395 8322 2405 8324 2418 8324 2420 8322 2434 8323 2444 8321 2456 8316 2478 8311 2498 8305 2516 8301 2533 8297 2547 8293 2563 8286 2603 8283 2638 8285 2676 8291 2707 8283 2712 8275 2709 8274 2715 8268 2714 8264 2714 8260 2710 8255 2697 8251 2682 8247 2666 8244 2630 8228 2663 8214 2681 8181 2712 8155 2726 8136 2730 8121 2725 8105 2717 8087 2695 8074 2660 8071 2637 8074 2587 8084 2529 8107 2457 8126 2408 8142 2389 8151 2384 8152 2384 8165 2387 8173 2404 8173 2425 8160 2477 8160 2488 8152 2524 8141 2592 8141 2637 8146 2643 8154 2636 8164 2617 8214 2499 8224 2475 8250 2416 8252 2409 8256 2402 8264 2394 8273 2394" style="clip-rule:evenodd;fill:#aa0000;image-rendering:optimizeQuality;shape-rendering:geometricPrecision"/><path class="fil1" d="m335.68 157.5-0.43803-0.31635-0.68138 0.0243-0.4867 0.12168-0.43803 0.34068-0.0973 0.46237-0.46237 0.24335 0.0973 0.90039h0.36503l0.36502 0.26768 0.70571 0.0243 0.4867-0.24335 0.43803 0.0487 0.38936-0.34069 0.24335-0.65704-0.19468-0.58404zm-3.2852-4.575 0.14601-0.19468 0.43803-0.14601 0.31636 0.17034h0.0243l0.58404 0.58404 0.14601 0.38936 0.0973 0.36502 0.17034 0.36503-0.0243 0.24335h0.31635l0.36502 0.073 0.12168-0.0243h0.24335l0.87606 0.17035 0.58403 0.29202 0.21902 0.14601 0.21901 0.0487 0.073 0.12167 0.31635 0.29202 0.17034 0.17035 0.21902 0.38935 0.073 0.14601 0.26769 0.17035 0.0243 0.19468v0.0243l-0.0243 0.0973 0.14601 0.34069 0.0243 0.21901 0.0973 0.21902v0.24335l-0.0243 0.70571-0.19468 0.41369-0.14601 0.60838-0.36503 0.31635v0.19468l-0.31635 0.24335-0.19468 0.073-0.073 0.073-0.26769 0.26768-0.38936 0.19468-0.14601 0.14601-0.31635 0.0973-0.0973 0.0487-0.19468 0.0973-0.073-0.073-0.29202 0.146-0.4867 0.073v-0.12168l-0.073-0.0487-0.073 0.0487-0.63271 0.12168-0.73004-0.17035-0.65705-0.12167h-0.12167l-0.80305-0.31635-0.24335 0.0243 0.0487 0.21902-0.0487 0.26768-0.17035 0.46236-0.0973 0.4867-0.0973 0.43803-0.17034 0.41369-0.0487 0.4137-0.24335 0.5597-0.14601 0.43803-0.0487 0.0973-0.17034 0.58404 0.0973 0.0243 0.073 0.31635v0.0487l-0.26768 0.24335 0.073 0.12168-0.29202 0.26768-0.14601-0.14601h-0.0487l-0.0973 0.12168 0.0487 0.24335-0.073 0.26768-0.21902 0.31635v0.12168l-0.21901 0.0973h-0.38936l-0.14601-0.0487-0.17034-0.21902-0.21902-0.48669-0.12167-0.53537 0.0487-0.80305 0.0973-1.0221 0.21901-1.2411 0.17035-0.75438 0.5597-2.4578 0.38936-1.4358-0.0487-0.17034 0.12167-0.14601-0.14601-0.21902-0.0973-0.14601v-0.38936l0.12168-0.073 0.073-0.14601h-0.0973v-0.0973l0.24335-0.14601 0.14601-0.21901 0.29202-0.21902 0.21902-0.46236 0.73004-1.6548 0.77872-1.3628z" style="clip-rule:evenodd;fill:#aa0000;image-rendering:optimizeQuality;shape-rendering:geometricPrecision;stroke-width:.024335"/><path class="fil1" d="m346.2 157.5-0.43803-0.31635-0.68138 0.0243-0.4867 0.12168-0.43802 0.34068-0.0973 0.46237-0.46237 0.24335 0.0973 0.90039h0.36503l0.36502 0.26768 0.73005 0.0243 0.46236-0.24335 0.43803 0.0487 0.38936-0.34069 0.24335-0.65704-0.19468-0.58404zm-3.2852-4.575 0.14601-0.19468 0.43802-0.14601 0.31636 0.17034h0.0243l0.58404 0.58404 0.14601 0.38936 0.0973 0.36502 0.17034 0.36503-0.0243 0.24335h0.34069l0.34069 0.073 0.12167-0.0243h0.24335l0.90039 0.17035 0.5597 0.29202 0.21902 0.14601 0.21901 0.0487 0.073 0.12167 0.31635 0.29202 0.17035 0.17035 0.21901 0.38935 0.073 0.14601 0.26769 0.17035 0.0243 0.19468v0.0243l-0.0243 0.0973 0.14601 0.34069 0.0243 0.21901 0.0973 0.21902v0.24335l-0.0243 0.70571-0.19468 0.41369-0.14601 0.60838-0.36502 0.31635v0.19468l-0.29202 0.24335-0.21902 0.073-0.073 0.073-0.26769 0.26768-0.36502 0.19468-0.17034 0.14601-0.31636 0.0973-0.0973 0.0487-0.19468 0.0973-0.0487-0.073-0.29202 0.146-0.51103 0.073v-0.12168l-0.073-0.0487-0.073 0.0487-0.63271 0.12168-0.73004-0.17035-0.65705-0.12167h-0.12167l-0.80305-0.31635-0.24335 0.0243 0.0487 0.21902-0.0487 0.26768-0.17035 0.46236-0.0973 0.4867-0.0973 0.43803-0.17034 0.41369-0.0487 0.4137-0.24335 0.5597-0.14601 0.43803-0.0487 0.0973-0.17034 0.58404 0.0973 0.0243 0.073 0.31635v0.0487l-0.26768 0.24335 0.073 0.12168-0.29202 0.26768-0.14601-0.14601h-0.0487l-0.0973 0.12168 0.0487 0.24335-0.073 0.26768-0.21901 0.31635v0.12168l-0.21902 0.0973h-0.38936l-0.14601-0.0487-0.17034-0.21902-0.21902-0.48669-0.12167-0.53537 0.0487-0.80305 0.0973-1.0221 0.21901-1.2411 0.17035-0.75438 0.5597-2.4578 0.38936-1.4358-0.0487-0.17034 0.12167-0.14601-0.146-0.21902-0.0973-0.14601v-0.38936l0.12167-0.073 0.073-0.14601h-0.0973v-0.0973l0.24334-0.14601 0.14601-0.21901 0.29202-0.21902 0.21902-0.46236 0.73004-1.6548 0.77872-1.3628z" style="clip-rule:evenodd;fill:#aa0000;image-rendering:optimizeQuality;shape-rendering:geometricPrecision;stroke-width:.024335"/><path class="fil1" d="m355.61 156.43-0.12168-0.12167h-0.14601l-0.19467 0.073-0.14601 0.0973-0.24335 0.21902-0.29202 0.19468-0.4867 0.58403-0.36502 0.58404-0.34069 0.53537-0.4137 0.77872-0.29202 0.87605-0.0243 0.46237 0.12167 0.21901 0.24335 0.0487 0.29202-0.0243 0.31636-0.0973 0.36502-0.14601 0.51103-0.36503 0.4137-0.46236 0.41369-0.60837 0.29202-0.90039 0.073-0.53537 0.0487-0.82739zm-0.75438-2.0685 0.43802-0.24335 0.21902 0.0487 0.36502 0.0487 0.43803 0.073 0.14601 0.17035 0.14601 0.29201v0.073l-0.073 0.073 0.0973 0.073 0.24335 0.36502-0.0973 0.21902 0.17035 0.0243-0.0243 0.12168 0.14601 0.12167 0.0243 0.34069 0.21901 0.4867 0.19468 0.75438 0.0243 0.21901 0.073 0.29202 0.073 0.34069-0.073 0.17035-0.073 0.31635 0.0973 0.31635-0.0243 0.14601-0.073 0.43803-0.24335 0.65704v0.29202l-0.14601 0.19468-0.26769 0.12168-0.073 0.36502-0.41369 0.43803-0.19468 0.26768-0.4867 0.31636-0.36503 0.26768-0.19467 0.12168v0.073l-0.29202 0.24335h-0.19468l-0.12168 0.12167-0.0973-0.0487-0.073 0.073-0.53537 0.17034-0.24335-0.0487-0.0487 0.0973h-0.073l-0.0487-0.073-0.21902 0.14601h-0.60833l-0.12167-0.073-0.073 0.0243-0.65704-0.12168-0.4137-0.21901-0.34068-0.19468-0.24335-0.24335-0.17035-0.21901-0.073-0.24335-0.073-0.073-0.0973-0.19468v-0.24335l-0.0487-0.38935-0.0973-0.073-0.0243-0.26768-0.14601-0.0973-0.0243-0.21902v-0.21901l0.14601-0.073-0.0243-0.0487v-0.12167l-0.0487-0.46236 0.0487-0.31636 0.34069-0.73004 0.14601-0.4137 0.19468-0.12167 0.073-0.31636 1.2168-1.6791 0.41369-0.43802 0.29202-0.31636 0.82739-0.73004 0.21901-0.0973 0.19468-0.17035 0.29202-0.12167 0.12167 0.073 0.19468-0.073z" style="clip-rule:evenodd;fill:#aa0000;image-rendering:optimizeQuality;shape-rendering:geometricPrecision;stroke-width:.024335"/><polygon class="fil1" transform="matrix(.024335 0 0 .024335 125.41 96.594)" points="9788 2489 9767 2492 9743 2504 9726 2519 9704 2550 9689 2580 9672 2645 9666 2685 9664 2698 9657 2731 9654 2737 9639 2741 9630 2748 9621 2750 9614 2747 9613 2741 9599 2721 9596 2710 9598 2706 9595 2703 9592 2694 9595 2685 9599 2675 9601 2654 9621 2566 9651 2467 9672 2420 9688 2401 9697 2396 9710 2396 9726 2412 9726 2432 9725 2442 9743 2432 9770 2424 9807 2426 9825 2429 9856 2445 9868 2455 9878 2475 9879 2485 9869 2495 9869 2498 9857 2510 9847 2508 9842 2501 9832 2496 9799 2489" style="clip-rule:evenodd;fill:#aa0000;image-rendering:optimizeQuality;shape-rendering:geometricPrecision"/><polygon class="fil1" transform="matrix(.024335 0 0 .024335 125.41 96.594)" points="10273 2403 10248 2404 10246 2408 10242 2410 10224 2411 10208 2416 10168 2428 10131 2441 10118 2448 10099 2456 10085 2476 10084 2490 10080 2498 10073 2512 10072 2520 10071 2526 10065 2537 10057 2563 10056 2574 10048 2596 10044 2614 10043 2627 10040 2631 10041 2634 10043 2658 10044 2660 10060 2669 10075 2668 10093 2659 10097 2656 10101 2656 10101 2659 10097 2664 10096 2674 10093 2681 10088 2693 10078 2702 10065 2718 10047 2731 10034 2736 10022 2745 9991 2736 9965 2721 9947 2701 9938 2675 9932 2634 9937 2593 9959 2510 9970 2473 9953 2476 9909 2475 9888 2465 9879 2457 9876 2454 9871 2442 9867 2438 9871 2428 9870 2422 9879 2410 9896 2404 9937 2386 9984 2376 10009 2372 10013 2370 10048 2299 10075 2257 10090 2240 10101 2239 10115 2239 10121 2238 10126 2242 10135 2251 10146 2267 10151 2286 10153 2303 10141 2348 10140 2356 10150 2358 10172 2360 10209 2364 10255 2367 10302 2373 10320 2381 10323 2383 10321 2385 10300 2391 10286 2398 10277 2398" style="clip-rule:evenodd;fill:#aa0000;image-rendering:optimizeQuality;shape-rendering:geometricPrecision"/><path class="fil1" d="m261.95 159.06 0.14601-0.68137-0.14601 0.14601-0.19468 0.0243-0.14601 0.073-0.14601 0.17034-0.41369 0.24335-0.0973 0.0487-0.46236 0.29202v0.073l-0.0973 0.0487-0.0243 0.0487-0.17034 0.17035-0.0487 0.073v0.073l-0.12168 0.12167 0.0243 0.17034 0.26768 0.17035 0.26769 0.073 0.68137 0.0243h0.46237zm0.85172-2.8472h-0.0243l-0.55971 0.21901-0.43802 0.24335 0.87605 0.0487zm2.6768-4.3073 0.0243-0.0243 0.26768 0.0487 0.14601 0.19467v0.31632l-0.0487 0.31635v0.17035l-0.19468 0.6327 0.0487 0.0487-0.12167 0.26769-0.14601 0.41369 0.34069-0.073h0.26768l0.21901 0.0487 0.12168 0.0487h0.0487l0.073 0.073 0.17035 0.0973 0.12167 0.12168 0.0973 0.26768-0.0487 0.0243h-0.14601l-0.0487 0.0973-0.073 0.0243-0.14601-0.073h-0.29202l-0.24335 0.0487-0.29202 0.0973v0.073l-0.31635 0.0487-0.073 0.0243-0.0973 0.17035-0.24335 0.21901-0.21901 0.51103-0.073 0.19468-0.14601 0.29202-0.14601 0.21902 0.31635 0.073 0.34069 0.073 0.14601 0.0487 0.0243 0.073-0.0487 0.0243v0.0487l-0.17034 0.0973v0.073l-0.14601 0.0487 0.0487 0.14601-0.63271 0.17034h-0.0487l-0.17034 0.14601v0.17035l-0.12168 0.073-0.0243 0.073 0.14601 0.0243-0.0487 0.12168h-0.17035l-0.0243 0.24335-0.073 0.36502-0.073 0.38936-0.0487 0.29202-0.14601 0.51103-0.12167 0.073 0.0243 0.12168 1.1194-0.14601 1.3871-0.19468-0.36503 0.19468-0.29202 0.12167-0.19468 0.073-0.0973 0.0243-0.17034 0.0973-0.31635 0.12168-0.19468 0.12167-0.43803 0.12168-0.34069 0.19468-0.0243 0.0243-0.146 0.12168 0.0243 0.0973-0.073 0.0487-0.073 0.38935-0.12167 0.70572 0.0243 0.14601-0.0487 0.14601-0.073 0.0487-0.0243 0.38935v0.19471l-0.073 0.073-0.073-0.0243-0.073 0.073h-0.0973l-0.17035 0.17034-0.21901 0.26769-0.0487 0.0487-0.0243 0.0487-0.0487-0.0243-0.19467-0.21901-0.12168-0.31636-0.0487-0.70571-0.0487-1.2898-0.29202 0.0487v0.0243l-0.21901 0.0243v0.0973l-0.17035-0.0243-0.073 0.0487h-0.70571l-0.0973-0.0243h-0.19468l-0.0973-0.073h-0.073l-0.26768-0.12167-0.24335-0.21901-0.12167-0.17035-0.12168-0.29202-0.12167-0.17034-0.0243-0.43803 0.19468-0.51103 0.12168-0.19468 0.41369-0.36503 2.8228-1.6304 0.0487-0.12167-0.17035-0.0487-0.0973 0.0487-0.29201 0.0243-0.12168 0.0243-0.26768-0.0243-0.0243 0.0973h-0.5354l-0.31635-0.0487-0.0973-0.0973-0.0487-0.29202-0.073-0.0487 0.073-0.36503 0.14601-0.34069 0.24335-0.24334 0.90039-0.43803 1.6791-0.63271 0.14601-0.24335 0.70571-1.3141 0.43803-0.68137 0.43803-0.60838 0.19468-0.17034 0.0973-0.073z" style="clip-rule:evenodd;fill:#aa0000;image-rendering:optimizeQuality;shape-rendering:geometricPrecision;stroke-width:.024335"/></g></svg>
